G04 #@! TF.GenerationSoftware,KiCad,Pcbnew,5.0.2-bee76a0~70~ubuntu16.04.1*
G04 #@! TF.CreationDate,2021-02-05T17:40:51+03:00*
G04 #@! TF.ProjectId,das_auto_schema,6461735f-6175-4746-9f5f-736368656d61,rev?*
G04 #@! TF.SameCoordinates,Original*
G04 #@! TF.FileFunction,Soldermask,Top*
G04 #@! TF.FilePolarity,Negative*
%FSLAX46Y46*%
G04 Gerber Fmt 4.6, Leading zero omitted, Abs format (unit mm)*
G04 Created by KiCad (PCBNEW 5.0.2-bee76a0~70~ubuntu16.04.1) date Fr 05 Feb 2021 17:40:51 MSK*
%MOMM*%
%LPD*%
G01*
G04 APERTURE LIST*
%ADD10C,0.100000*%
G04 APERTURE END LIST*
D10*
G36*
X150046643Y-94990519D02*
X150112827Y-94997037D01*
X150223539Y-95030621D01*
X150282667Y-95048557D01*
X150421287Y-95122652D01*
X150439191Y-95132222D01*
X150474929Y-95161552D01*
X150576386Y-95244814D01*
X150659648Y-95346271D01*
X150688978Y-95382009D01*
X150688979Y-95382011D01*
X150772643Y-95538533D01*
X150772643Y-95538534D01*
X150824163Y-95708373D01*
X150841559Y-95885000D01*
X150824163Y-96061627D01*
X150789816Y-96174853D01*
X150772643Y-96231467D01*
X150743286Y-96286389D01*
X150688978Y-96387991D01*
X150659767Y-96423585D01*
X150576386Y-96525186D01*
X150474929Y-96608448D01*
X150439191Y-96637778D01*
X150439189Y-96637779D01*
X150282667Y-96721443D01*
X150226053Y-96738616D01*
X150112827Y-96772963D01*
X150046642Y-96779482D01*
X149980460Y-96786000D01*
X149891940Y-96786000D01*
X149825758Y-96779482D01*
X149759573Y-96772963D01*
X149646347Y-96738616D01*
X149589733Y-96721443D01*
X149433211Y-96637779D01*
X149433209Y-96637778D01*
X149397471Y-96608448D01*
X149296014Y-96525186D01*
X149212633Y-96423585D01*
X149183422Y-96387991D01*
X149129114Y-96286389D01*
X149099757Y-96231467D01*
X149082584Y-96174853D01*
X149048237Y-96061627D01*
X149030841Y-95885000D01*
X149048237Y-95708373D01*
X149099757Y-95538534D01*
X149099757Y-95538533D01*
X149183421Y-95382011D01*
X149183422Y-95382009D01*
X149212752Y-95346271D01*
X149296014Y-95244814D01*
X149397471Y-95161552D01*
X149433209Y-95132222D01*
X149451113Y-95122652D01*
X149589733Y-95048557D01*
X149648861Y-95030621D01*
X149759573Y-94997037D01*
X149825757Y-94990519D01*
X149891940Y-94984000D01*
X149980460Y-94984000D01*
X150046643Y-94990519D01*
X150046643Y-94990519D01*
G37*
G36*
X153377200Y-96786000D02*
X151575200Y-96786000D01*
X151575200Y-94984000D01*
X153377200Y-94984000D01*
X153377200Y-96786000D01*
X153377200Y-96786000D01*
G37*
G36*
X144966643Y-94990519D02*
X145032827Y-94997037D01*
X145143539Y-95030621D01*
X145202667Y-95048557D01*
X145341287Y-95122652D01*
X145359191Y-95132222D01*
X145394929Y-95161552D01*
X145496386Y-95244814D01*
X145579648Y-95346271D01*
X145608978Y-95382009D01*
X145608979Y-95382011D01*
X145692643Y-95538533D01*
X145692643Y-95538534D01*
X145744163Y-95708373D01*
X145761559Y-95885000D01*
X145744163Y-96061627D01*
X145709816Y-96174853D01*
X145692643Y-96231467D01*
X145663286Y-96286389D01*
X145608978Y-96387991D01*
X145579767Y-96423585D01*
X145496386Y-96525186D01*
X145394929Y-96608448D01*
X145359191Y-96637778D01*
X145359189Y-96637779D01*
X145202667Y-96721443D01*
X145146053Y-96738616D01*
X145032827Y-96772963D01*
X144966642Y-96779482D01*
X144900460Y-96786000D01*
X144811940Y-96786000D01*
X144745758Y-96779482D01*
X144679573Y-96772963D01*
X144566347Y-96738616D01*
X144509733Y-96721443D01*
X144353211Y-96637779D01*
X144353209Y-96637778D01*
X144317471Y-96608448D01*
X144216014Y-96525186D01*
X144132633Y-96423585D01*
X144103422Y-96387991D01*
X144049114Y-96286389D01*
X144019757Y-96231467D01*
X144002584Y-96174853D01*
X143968237Y-96061627D01*
X143950841Y-95885000D01*
X143968237Y-95708373D01*
X144019757Y-95538534D01*
X144019757Y-95538533D01*
X144103421Y-95382011D01*
X144103422Y-95382009D01*
X144132752Y-95346271D01*
X144216014Y-95244814D01*
X144317471Y-95161552D01*
X144353209Y-95132222D01*
X144371113Y-95122652D01*
X144509733Y-95048557D01*
X144568861Y-95030621D01*
X144679573Y-94997037D01*
X144745757Y-94990519D01*
X144811940Y-94984000D01*
X144900460Y-94984000D01*
X144966643Y-94990519D01*
X144966643Y-94990519D01*
G37*
G36*
X147506643Y-94990519D02*
X147572827Y-94997037D01*
X147683539Y-95030621D01*
X147742667Y-95048557D01*
X147881287Y-95122652D01*
X147899191Y-95132222D01*
X147934929Y-95161552D01*
X148036386Y-95244814D01*
X148119648Y-95346271D01*
X148148978Y-95382009D01*
X148148979Y-95382011D01*
X148232643Y-95538533D01*
X148232643Y-95538534D01*
X148284163Y-95708373D01*
X148301559Y-95885000D01*
X148284163Y-96061627D01*
X148249816Y-96174853D01*
X148232643Y-96231467D01*
X148203286Y-96286389D01*
X148148978Y-96387991D01*
X148119767Y-96423585D01*
X148036386Y-96525186D01*
X147934929Y-96608448D01*
X147899191Y-96637778D01*
X147899189Y-96637779D01*
X147742667Y-96721443D01*
X147686053Y-96738616D01*
X147572827Y-96772963D01*
X147506642Y-96779482D01*
X147440460Y-96786000D01*
X147351940Y-96786000D01*
X147285758Y-96779482D01*
X147219573Y-96772963D01*
X147106347Y-96738616D01*
X147049733Y-96721443D01*
X146893211Y-96637779D01*
X146893209Y-96637778D01*
X146857471Y-96608448D01*
X146756014Y-96525186D01*
X146672633Y-96423585D01*
X146643422Y-96387991D01*
X146589114Y-96286389D01*
X146559757Y-96231467D01*
X146542584Y-96174853D01*
X146508237Y-96061627D01*
X146490841Y-95885000D01*
X146508237Y-95708373D01*
X146559757Y-95538534D01*
X146559757Y-95538533D01*
X146643421Y-95382011D01*
X146643422Y-95382009D01*
X146672752Y-95346271D01*
X146756014Y-95244814D01*
X146857471Y-95161552D01*
X146893209Y-95132222D01*
X146911113Y-95122652D01*
X147049733Y-95048557D01*
X147108861Y-95030621D01*
X147219573Y-94997037D01*
X147285757Y-94990519D01*
X147351940Y-94984000D01*
X147440460Y-94984000D01*
X147506643Y-94990519D01*
X147506643Y-94990519D01*
G37*
G36*
X137600642Y-94888918D02*
X137666827Y-94895437D01*
X137780053Y-94929784D01*
X137836667Y-94946957D01*
X137975287Y-95021052D01*
X137993191Y-95030622D01*
X138028929Y-95059952D01*
X138130386Y-95143214D01*
X138213648Y-95244671D01*
X138242978Y-95280409D01*
X138242979Y-95280411D01*
X138326643Y-95436933D01*
X138326643Y-95436934D01*
X138378163Y-95606773D01*
X138395559Y-95783400D01*
X138378163Y-95960027D01*
X138347344Y-96061625D01*
X138326643Y-96129867D01*
X138272336Y-96231466D01*
X138242978Y-96286391D01*
X138213648Y-96322129D01*
X138130386Y-96423586D01*
X138028929Y-96506848D01*
X137993191Y-96536178D01*
X137993189Y-96536179D01*
X137836667Y-96619843D01*
X137780053Y-96637016D01*
X137666827Y-96671363D01*
X137600643Y-96677881D01*
X137534460Y-96684400D01*
X137445940Y-96684400D01*
X137379758Y-96677882D01*
X137313573Y-96671363D01*
X137200347Y-96637016D01*
X137143733Y-96619843D01*
X136987211Y-96536179D01*
X136987209Y-96536178D01*
X136951471Y-96506848D01*
X136850014Y-96423586D01*
X136766752Y-96322129D01*
X136737422Y-96286391D01*
X136708064Y-96231466D01*
X136653757Y-96129867D01*
X136633056Y-96061625D01*
X136602237Y-95960027D01*
X136584841Y-95783400D01*
X136602237Y-95606773D01*
X136653757Y-95436934D01*
X136653757Y-95436933D01*
X136737421Y-95280411D01*
X136737422Y-95280409D01*
X136766752Y-95244671D01*
X136850014Y-95143214D01*
X136951471Y-95059952D01*
X136987209Y-95030622D01*
X137005113Y-95021052D01*
X137143733Y-94946957D01*
X137200347Y-94929784D01*
X137313573Y-94895437D01*
X137379758Y-94888918D01*
X137445940Y-94882400D01*
X137534460Y-94882400D01*
X137600642Y-94888918D01*
X137600642Y-94888918D01*
G37*
G36*
X140140642Y-94888918D02*
X140206827Y-94895437D01*
X140320053Y-94929784D01*
X140376667Y-94946957D01*
X140515287Y-95021052D01*
X140533191Y-95030622D01*
X140568929Y-95059952D01*
X140670386Y-95143214D01*
X140753648Y-95244671D01*
X140782978Y-95280409D01*
X140782979Y-95280411D01*
X140866643Y-95436933D01*
X140866643Y-95436934D01*
X140918163Y-95606773D01*
X140935559Y-95783400D01*
X140918163Y-95960027D01*
X140887344Y-96061625D01*
X140866643Y-96129867D01*
X140812336Y-96231466D01*
X140782978Y-96286391D01*
X140753648Y-96322129D01*
X140670386Y-96423586D01*
X140568929Y-96506848D01*
X140533191Y-96536178D01*
X140533189Y-96536179D01*
X140376667Y-96619843D01*
X140320053Y-96637016D01*
X140206827Y-96671363D01*
X140140643Y-96677881D01*
X140074460Y-96684400D01*
X139985940Y-96684400D01*
X139919758Y-96677882D01*
X139853573Y-96671363D01*
X139740347Y-96637016D01*
X139683733Y-96619843D01*
X139527211Y-96536179D01*
X139527209Y-96536178D01*
X139491471Y-96506848D01*
X139390014Y-96423586D01*
X139306752Y-96322129D01*
X139277422Y-96286391D01*
X139248064Y-96231466D01*
X139193757Y-96129867D01*
X139173056Y-96061625D01*
X139142237Y-95960027D01*
X139124841Y-95783400D01*
X139142237Y-95606773D01*
X139193757Y-95436934D01*
X139193757Y-95436933D01*
X139277421Y-95280411D01*
X139277422Y-95280409D01*
X139306752Y-95244671D01*
X139390014Y-95143214D01*
X139491471Y-95059952D01*
X139527209Y-95030622D01*
X139545113Y-95021052D01*
X139683733Y-94946957D01*
X139740347Y-94929784D01*
X139853573Y-94895437D01*
X139919758Y-94888918D01*
X139985940Y-94882400D01*
X140074460Y-94882400D01*
X140140642Y-94888918D01*
X140140642Y-94888918D01*
G37*
G36*
X133311200Y-96684400D02*
X131509200Y-96684400D01*
X131509200Y-94882400D01*
X133311200Y-94882400D01*
X133311200Y-96684400D01*
X133311200Y-96684400D01*
G37*
G36*
X135060642Y-94888918D02*
X135126827Y-94895437D01*
X135240053Y-94929784D01*
X135296667Y-94946957D01*
X135435287Y-95021052D01*
X135453191Y-95030622D01*
X135488929Y-95059952D01*
X135590386Y-95143214D01*
X135673648Y-95244671D01*
X135702978Y-95280409D01*
X135702979Y-95280411D01*
X135786643Y-95436933D01*
X135786643Y-95436934D01*
X135838163Y-95606773D01*
X135855559Y-95783400D01*
X135838163Y-95960027D01*
X135807344Y-96061625D01*
X135786643Y-96129867D01*
X135732336Y-96231466D01*
X135702978Y-96286391D01*
X135673648Y-96322129D01*
X135590386Y-96423586D01*
X135488929Y-96506848D01*
X135453191Y-96536178D01*
X135453189Y-96536179D01*
X135296667Y-96619843D01*
X135240053Y-96637016D01*
X135126827Y-96671363D01*
X135060643Y-96677881D01*
X134994460Y-96684400D01*
X134905940Y-96684400D01*
X134839758Y-96677882D01*
X134773573Y-96671363D01*
X134660347Y-96637016D01*
X134603733Y-96619843D01*
X134447211Y-96536179D01*
X134447209Y-96536178D01*
X134411471Y-96506848D01*
X134310014Y-96423586D01*
X134226752Y-96322129D01*
X134197422Y-96286391D01*
X134168064Y-96231466D01*
X134113757Y-96129867D01*
X134093056Y-96061625D01*
X134062237Y-95960027D01*
X134044841Y-95783400D01*
X134062237Y-95606773D01*
X134113757Y-95436934D01*
X134113757Y-95436933D01*
X134197421Y-95280411D01*
X134197422Y-95280409D01*
X134226752Y-95244671D01*
X134310014Y-95143214D01*
X134411471Y-95059952D01*
X134447209Y-95030622D01*
X134465113Y-95021052D01*
X134603733Y-94946957D01*
X134660347Y-94929784D01*
X134773573Y-94895437D01*
X134839758Y-94888918D01*
X134905940Y-94882400D01*
X134994460Y-94882400D01*
X135060642Y-94888918D01*
X135060642Y-94888918D01*
G37*
G36*
X144966643Y-92450519D02*
X145032827Y-92457037D01*
X145146053Y-92491384D01*
X145202667Y-92508557D01*
X145341287Y-92582652D01*
X145359191Y-92592222D01*
X145394929Y-92621552D01*
X145496386Y-92704814D01*
X145579648Y-92806271D01*
X145608978Y-92842009D01*
X145608979Y-92842011D01*
X145692643Y-92998533D01*
X145692643Y-92998534D01*
X145744163Y-93168373D01*
X145761559Y-93345000D01*
X145744163Y-93521627D01*
X145709816Y-93634853D01*
X145692643Y-93691467D01*
X145618548Y-93830087D01*
X145608978Y-93847991D01*
X145579648Y-93883729D01*
X145496386Y-93985186D01*
X145394929Y-94068448D01*
X145359191Y-94097778D01*
X145359189Y-94097779D01*
X145202667Y-94181443D01*
X145146053Y-94198616D01*
X145032827Y-94232963D01*
X144966643Y-94239481D01*
X144900460Y-94246000D01*
X144811940Y-94246000D01*
X144745757Y-94239481D01*
X144679573Y-94232963D01*
X144566347Y-94198616D01*
X144509733Y-94181443D01*
X144353211Y-94097779D01*
X144353209Y-94097778D01*
X144317471Y-94068448D01*
X144216014Y-93985186D01*
X144132752Y-93883729D01*
X144103422Y-93847991D01*
X144093852Y-93830087D01*
X144019757Y-93691467D01*
X144002584Y-93634853D01*
X143968237Y-93521627D01*
X143950841Y-93345000D01*
X143968237Y-93168373D01*
X144019757Y-92998534D01*
X144019757Y-92998533D01*
X144103421Y-92842011D01*
X144103422Y-92842009D01*
X144132752Y-92806271D01*
X144216014Y-92704814D01*
X144317471Y-92621552D01*
X144353209Y-92592222D01*
X144371113Y-92582652D01*
X144509733Y-92508557D01*
X144566347Y-92491384D01*
X144679573Y-92457037D01*
X144745757Y-92450519D01*
X144811940Y-92444000D01*
X144900460Y-92444000D01*
X144966643Y-92450519D01*
X144966643Y-92450519D01*
G37*
G36*
X147506643Y-92450519D02*
X147572827Y-92457037D01*
X147686053Y-92491384D01*
X147742667Y-92508557D01*
X147881287Y-92582652D01*
X147899191Y-92592222D01*
X147934929Y-92621552D01*
X148036386Y-92704814D01*
X148119648Y-92806271D01*
X148148978Y-92842009D01*
X148148979Y-92842011D01*
X148232643Y-92998533D01*
X148232643Y-92998534D01*
X148284163Y-93168373D01*
X148301559Y-93345000D01*
X148284163Y-93521627D01*
X148249816Y-93634853D01*
X148232643Y-93691467D01*
X148158548Y-93830087D01*
X148148978Y-93847991D01*
X148119648Y-93883729D01*
X148036386Y-93985186D01*
X147934929Y-94068448D01*
X147899191Y-94097778D01*
X147899189Y-94097779D01*
X147742667Y-94181443D01*
X147686053Y-94198616D01*
X147572827Y-94232963D01*
X147506643Y-94239481D01*
X147440460Y-94246000D01*
X147351940Y-94246000D01*
X147285757Y-94239481D01*
X147219573Y-94232963D01*
X147106347Y-94198616D01*
X147049733Y-94181443D01*
X146893211Y-94097779D01*
X146893209Y-94097778D01*
X146857471Y-94068448D01*
X146756014Y-93985186D01*
X146672752Y-93883729D01*
X146643422Y-93847991D01*
X146633852Y-93830087D01*
X146559757Y-93691467D01*
X146542584Y-93634853D01*
X146508237Y-93521627D01*
X146490841Y-93345000D01*
X146508237Y-93168373D01*
X146559757Y-92998534D01*
X146559757Y-92998533D01*
X146643421Y-92842011D01*
X146643422Y-92842009D01*
X146672752Y-92806271D01*
X146756014Y-92704814D01*
X146857471Y-92621552D01*
X146893209Y-92592222D01*
X146911113Y-92582652D01*
X147049733Y-92508557D01*
X147106347Y-92491384D01*
X147219573Y-92457037D01*
X147285757Y-92450519D01*
X147351940Y-92444000D01*
X147440460Y-92444000D01*
X147506643Y-92450519D01*
X147506643Y-92450519D01*
G37*
G36*
X150046643Y-92450519D02*
X150112827Y-92457037D01*
X150226053Y-92491384D01*
X150282667Y-92508557D01*
X150421287Y-92582652D01*
X150439191Y-92592222D01*
X150474929Y-92621552D01*
X150576386Y-92704814D01*
X150659648Y-92806271D01*
X150688978Y-92842009D01*
X150688979Y-92842011D01*
X150772643Y-92998533D01*
X150772643Y-92998534D01*
X150824163Y-93168373D01*
X150841559Y-93345000D01*
X150824163Y-93521627D01*
X150789816Y-93634853D01*
X150772643Y-93691467D01*
X150698548Y-93830087D01*
X150688978Y-93847991D01*
X150659648Y-93883729D01*
X150576386Y-93985186D01*
X150474929Y-94068448D01*
X150439191Y-94097778D01*
X150439189Y-94097779D01*
X150282667Y-94181443D01*
X150226053Y-94198616D01*
X150112827Y-94232963D01*
X150046643Y-94239481D01*
X149980460Y-94246000D01*
X149891940Y-94246000D01*
X149825757Y-94239481D01*
X149759573Y-94232963D01*
X149646347Y-94198616D01*
X149589733Y-94181443D01*
X149433211Y-94097779D01*
X149433209Y-94097778D01*
X149397471Y-94068448D01*
X149296014Y-93985186D01*
X149212752Y-93883729D01*
X149183422Y-93847991D01*
X149173852Y-93830087D01*
X149099757Y-93691467D01*
X149082584Y-93634853D01*
X149048237Y-93521627D01*
X149030841Y-93345000D01*
X149048237Y-93168373D01*
X149099757Y-92998534D01*
X149099757Y-92998533D01*
X149183421Y-92842011D01*
X149183422Y-92842009D01*
X149212752Y-92806271D01*
X149296014Y-92704814D01*
X149397471Y-92621552D01*
X149433209Y-92592222D01*
X149451113Y-92582652D01*
X149589733Y-92508557D01*
X149646347Y-92491384D01*
X149759573Y-92457037D01*
X149825757Y-92450519D01*
X149891940Y-92444000D01*
X149980460Y-92444000D01*
X150046643Y-92450519D01*
X150046643Y-92450519D01*
G37*
G36*
X152586643Y-92450519D02*
X152652827Y-92457037D01*
X152766053Y-92491384D01*
X152822667Y-92508557D01*
X152961287Y-92582652D01*
X152979191Y-92592222D01*
X153014929Y-92621552D01*
X153116386Y-92704814D01*
X153199648Y-92806271D01*
X153228978Y-92842009D01*
X153228979Y-92842011D01*
X153312643Y-92998533D01*
X153312643Y-92998534D01*
X153364163Y-93168373D01*
X153381559Y-93345000D01*
X153364163Y-93521627D01*
X153329816Y-93634853D01*
X153312643Y-93691467D01*
X153238548Y-93830087D01*
X153228978Y-93847991D01*
X153199648Y-93883729D01*
X153116386Y-93985186D01*
X153014929Y-94068448D01*
X152979191Y-94097778D01*
X152979189Y-94097779D01*
X152822667Y-94181443D01*
X152766053Y-94198616D01*
X152652827Y-94232963D01*
X152586643Y-94239481D01*
X152520460Y-94246000D01*
X152431940Y-94246000D01*
X152365757Y-94239481D01*
X152299573Y-94232963D01*
X152186347Y-94198616D01*
X152129733Y-94181443D01*
X151973211Y-94097779D01*
X151973209Y-94097778D01*
X151937471Y-94068448D01*
X151836014Y-93985186D01*
X151752752Y-93883729D01*
X151723422Y-93847991D01*
X151713852Y-93830087D01*
X151639757Y-93691467D01*
X151622584Y-93634853D01*
X151588237Y-93521627D01*
X151570841Y-93345000D01*
X151588237Y-93168373D01*
X151639757Y-92998534D01*
X151639757Y-92998533D01*
X151723421Y-92842011D01*
X151723422Y-92842009D01*
X151752752Y-92806271D01*
X151836014Y-92704814D01*
X151937471Y-92621552D01*
X151973209Y-92592222D01*
X151991113Y-92582652D01*
X152129733Y-92508557D01*
X152186347Y-92491384D01*
X152299573Y-92457037D01*
X152365757Y-92450519D01*
X152431940Y-92444000D01*
X152520460Y-92444000D01*
X152586643Y-92450519D01*
X152586643Y-92450519D01*
G37*
G36*
X156870666Y-90040165D02*
X156909337Y-90051896D01*
X156944979Y-90070948D01*
X156976217Y-90096583D01*
X157001852Y-90127821D01*
X157020904Y-90163463D01*
X157032635Y-90202134D01*
X157037200Y-90248488D01*
X157037200Y-90899712D01*
X157032635Y-90946066D01*
X157020904Y-90984737D01*
X157001852Y-91020379D01*
X156976217Y-91051617D01*
X156944979Y-91077252D01*
X156909337Y-91096304D01*
X156870666Y-91108035D01*
X156824312Y-91112600D01*
X155748088Y-91112600D01*
X155701734Y-91108035D01*
X155663063Y-91096304D01*
X155627421Y-91077252D01*
X155596183Y-91051617D01*
X155570548Y-91020379D01*
X155551496Y-90984737D01*
X155539765Y-90946066D01*
X155535200Y-90899712D01*
X155535200Y-90248488D01*
X155539765Y-90202134D01*
X155551496Y-90163463D01*
X155570548Y-90127821D01*
X155596183Y-90096583D01*
X155627421Y-90070948D01*
X155663063Y-90051896D01*
X155701734Y-90040165D01*
X155748088Y-90035600D01*
X156824312Y-90035600D01*
X156870666Y-90040165D01*
X156870666Y-90040165D01*
G37*
G36*
X163051443Y-88919919D02*
X163117627Y-88926437D01*
X163226361Y-88959421D01*
X163287467Y-88977957D01*
X163367765Y-89020878D01*
X163443991Y-89061622D01*
X163471163Y-89083922D01*
X163581186Y-89174214D01*
X163664448Y-89275671D01*
X163693778Y-89311409D01*
X163693779Y-89311411D01*
X163777443Y-89467933D01*
X163777443Y-89467934D01*
X163828963Y-89637773D01*
X163846359Y-89814400D01*
X163828963Y-89991027D01*
X163809225Y-90056095D01*
X163777443Y-90160867D01*
X163703348Y-90299487D01*
X163693778Y-90317391D01*
X163664448Y-90353129D01*
X163581186Y-90454586D01*
X163479729Y-90537848D01*
X163443991Y-90567178D01*
X163443989Y-90567179D01*
X163287467Y-90650843D01*
X163230853Y-90668016D01*
X163117627Y-90702363D01*
X163051442Y-90708882D01*
X162985260Y-90715400D01*
X162896740Y-90715400D01*
X162830557Y-90708881D01*
X162764373Y-90702363D01*
X162651147Y-90668016D01*
X162594533Y-90650843D01*
X162438011Y-90567179D01*
X162438009Y-90567178D01*
X162402271Y-90537848D01*
X162300814Y-90454586D01*
X162217552Y-90353129D01*
X162188222Y-90317391D01*
X162178652Y-90299487D01*
X162104557Y-90160867D01*
X162072775Y-90056095D01*
X162053037Y-89991027D01*
X162035641Y-89814400D01*
X162053037Y-89637773D01*
X162104557Y-89467934D01*
X162104557Y-89467933D01*
X162188221Y-89311411D01*
X162188222Y-89311409D01*
X162217552Y-89275671D01*
X162300814Y-89174214D01*
X162410837Y-89083922D01*
X162438009Y-89061622D01*
X162514235Y-89020878D01*
X162594533Y-88977957D01*
X162655639Y-88959421D01*
X162764373Y-88926437D01*
X162830557Y-88919919D01*
X162896740Y-88913400D01*
X162985260Y-88913400D01*
X163051443Y-88919919D01*
X163051443Y-88919919D01*
G37*
G36*
X154547204Y-88156147D02*
X154583745Y-88167232D01*
X154617420Y-88185231D01*
X154646941Y-88209459D01*
X154671169Y-88238980D01*
X154689168Y-88272655D01*
X154700253Y-88309196D01*
X154704600Y-88353338D01*
X154704600Y-89802262D01*
X154700253Y-89846404D01*
X154689168Y-89882945D01*
X154671169Y-89916620D01*
X154646941Y-89946141D01*
X154617420Y-89970369D01*
X154583745Y-89988368D01*
X154547204Y-89999453D01*
X154503062Y-90003800D01*
X153554138Y-90003800D01*
X153509996Y-89999453D01*
X153473455Y-89988368D01*
X153439780Y-89970369D01*
X153410259Y-89946141D01*
X153386031Y-89916620D01*
X153368032Y-89882945D01*
X153356947Y-89846404D01*
X153352600Y-89802262D01*
X153352600Y-88353338D01*
X153356947Y-88309196D01*
X153368032Y-88272655D01*
X153386031Y-88238980D01*
X153410259Y-88209459D01*
X153439780Y-88185231D01*
X153473455Y-88167232D01*
X153509996Y-88156147D01*
X153554138Y-88151800D01*
X154503062Y-88151800D01*
X154547204Y-88156147D01*
X154547204Y-88156147D01*
G37*
G36*
X151747204Y-88156147D02*
X151783745Y-88167232D01*
X151817420Y-88185231D01*
X151846941Y-88209459D01*
X151871169Y-88238980D01*
X151889168Y-88272655D01*
X151900253Y-88309196D01*
X151904600Y-88353338D01*
X151904600Y-89802262D01*
X151900253Y-89846404D01*
X151889168Y-89882945D01*
X151871169Y-89916620D01*
X151846941Y-89946141D01*
X151817420Y-89970369D01*
X151783745Y-89988368D01*
X151747204Y-89999453D01*
X151703062Y-90003800D01*
X150754138Y-90003800D01*
X150709996Y-89999453D01*
X150673455Y-89988368D01*
X150639780Y-89970369D01*
X150610259Y-89946141D01*
X150586031Y-89916620D01*
X150568032Y-89882945D01*
X150556947Y-89846404D01*
X150552600Y-89802262D01*
X150552600Y-88353338D01*
X150556947Y-88309196D01*
X150568032Y-88272655D01*
X150586031Y-88238980D01*
X150610259Y-88209459D01*
X150639780Y-88185231D01*
X150673455Y-88167232D01*
X150709996Y-88156147D01*
X150754138Y-88151800D01*
X151703062Y-88151800D01*
X151747204Y-88156147D01*
X151747204Y-88156147D01*
G37*
G36*
X121551966Y-88871765D02*
X121590637Y-88883496D01*
X121626279Y-88902548D01*
X121657517Y-88928183D01*
X121683152Y-88959421D01*
X121702204Y-88995063D01*
X121713935Y-89033734D01*
X121718500Y-89080088D01*
X121718500Y-89731312D01*
X121713935Y-89777666D01*
X121702204Y-89816337D01*
X121683152Y-89851979D01*
X121657517Y-89883217D01*
X121626279Y-89908852D01*
X121590637Y-89927904D01*
X121551966Y-89939635D01*
X121505612Y-89944200D01*
X120429388Y-89944200D01*
X120383034Y-89939635D01*
X120344363Y-89927904D01*
X120308721Y-89908852D01*
X120277483Y-89883217D01*
X120251848Y-89851979D01*
X120232796Y-89816337D01*
X120221065Y-89777666D01*
X120216500Y-89731312D01*
X120216500Y-89080088D01*
X120221065Y-89033734D01*
X120232796Y-88995063D01*
X120251848Y-88959421D01*
X120277483Y-88928183D01*
X120308721Y-88902548D01*
X120344363Y-88883496D01*
X120383034Y-88871765D01*
X120429388Y-88867200D01*
X121505612Y-88867200D01*
X121551966Y-88871765D01*
X121551966Y-88871765D01*
G37*
G36*
X156870666Y-88165165D02*
X156909337Y-88176896D01*
X156944979Y-88195948D01*
X156976217Y-88221583D01*
X157001852Y-88252821D01*
X157020904Y-88288463D01*
X157032635Y-88327134D01*
X157037200Y-88373488D01*
X157037200Y-89024712D01*
X157032635Y-89071066D01*
X157020904Y-89109737D01*
X157001852Y-89145379D01*
X156976217Y-89176617D01*
X156944979Y-89202252D01*
X156909337Y-89221304D01*
X156870666Y-89233035D01*
X156824312Y-89237600D01*
X155748088Y-89237600D01*
X155701734Y-89233035D01*
X155663063Y-89221304D01*
X155627421Y-89202252D01*
X155596183Y-89176617D01*
X155570548Y-89145379D01*
X155551496Y-89109737D01*
X155539765Y-89071066D01*
X155535200Y-89024712D01*
X155535200Y-88373488D01*
X155539765Y-88327134D01*
X155551496Y-88288463D01*
X155570548Y-88252821D01*
X155596183Y-88221583D01*
X155627421Y-88195948D01*
X155663063Y-88176896D01*
X155701734Y-88165165D01*
X155748088Y-88160600D01*
X156824312Y-88160600D01*
X156870666Y-88165165D01*
X156870666Y-88165165D01*
G37*
G36*
X163051443Y-86379919D02*
X163117627Y-86386437D01*
X163230853Y-86420784D01*
X163287467Y-86437957D01*
X163426087Y-86512052D01*
X163443991Y-86521622D01*
X163479729Y-86550952D01*
X163581186Y-86634214D01*
X163664448Y-86735671D01*
X163693778Y-86771409D01*
X163693779Y-86771411D01*
X163777443Y-86927933D01*
X163790776Y-86971888D01*
X163828963Y-87097773D01*
X163846359Y-87274400D01*
X163828963Y-87451027D01*
X163794616Y-87564253D01*
X163777443Y-87620867D01*
X163726412Y-87716337D01*
X163693778Y-87777391D01*
X163675264Y-87799950D01*
X163581186Y-87914586D01*
X163488879Y-87990339D01*
X163443991Y-88027178D01*
X163443989Y-88027179D01*
X163287467Y-88110843D01*
X163230853Y-88128016D01*
X163117627Y-88162363D01*
X163068190Y-88167232D01*
X162985260Y-88175400D01*
X162896740Y-88175400D01*
X162813810Y-88167232D01*
X162764373Y-88162363D01*
X162651147Y-88128016D01*
X162594533Y-88110843D01*
X162438011Y-88027179D01*
X162438009Y-88027178D01*
X162393121Y-87990339D01*
X162300814Y-87914586D01*
X162206736Y-87799950D01*
X162188222Y-87777391D01*
X162155588Y-87716337D01*
X162104557Y-87620867D01*
X162087384Y-87564253D01*
X162053037Y-87451027D01*
X162035641Y-87274400D01*
X162053037Y-87097773D01*
X162091224Y-86971888D01*
X162104557Y-86927933D01*
X162188221Y-86771411D01*
X162188222Y-86771409D01*
X162217552Y-86735671D01*
X162300814Y-86634214D01*
X162402271Y-86550952D01*
X162438009Y-86521622D01*
X162455913Y-86512052D01*
X162594533Y-86437957D01*
X162651147Y-86420784D01*
X162764373Y-86386437D01*
X162830557Y-86379919D01*
X162896740Y-86373400D01*
X162985260Y-86373400D01*
X163051443Y-86379919D01*
X163051443Y-86379919D01*
G37*
G36*
X121551966Y-86996765D02*
X121590637Y-87008496D01*
X121626279Y-87027548D01*
X121657517Y-87053183D01*
X121683152Y-87084421D01*
X121702204Y-87120063D01*
X121713935Y-87158734D01*
X121718500Y-87205088D01*
X121718500Y-87856312D01*
X121713935Y-87902666D01*
X121702204Y-87941337D01*
X121683152Y-87976979D01*
X121657517Y-88008217D01*
X121626279Y-88033852D01*
X121590637Y-88052904D01*
X121551966Y-88064635D01*
X121505612Y-88069200D01*
X120429388Y-88069200D01*
X120383034Y-88064635D01*
X120344363Y-88052904D01*
X120308721Y-88033852D01*
X120277483Y-88008217D01*
X120251848Y-87976979D01*
X120232796Y-87941337D01*
X120221065Y-87902666D01*
X120216500Y-87856312D01*
X120216500Y-87205088D01*
X120221065Y-87158734D01*
X120232796Y-87120063D01*
X120251848Y-87084421D01*
X120277483Y-87053183D01*
X120308721Y-87027548D01*
X120344363Y-87008496D01*
X120383034Y-86996765D01*
X120429388Y-86992200D01*
X121505612Y-86992200D01*
X121551966Y-86996765D01*
X121551966Y-86996765D01*
G37*
G36*
X124647000Y-87975100D02*
X122545000Y-87975100D01*
X122545000Y-86373100D01*
X124647000Y-86373100D01*
X124647000Y-87975100D01*
X124647000Y-87975100D01*
G37*
G36*
X139776466Y-86763565D02*
X139815137Y-86775296D01*
X139850779Y-86794348D01*
X139882017Y-86819983D01*
X139907652Y-86851221D01*
X139926704Y-86886863D01*
X139938435Y-86925534D01*
X139943000Y-86971888D01*
X139943000Y-87623112D01*
X139938435Y-87669466D01*
X139926704Y-87708137D01*
X139907652Y-87743779D01*
X139882017Y-87775017D01*
X139850779Y-87800652D01*
X139815137Y-87819704D01*
X139776466Y-87831435D01*
X139730112Y-87836000D01*
X138653888Y-87836000D01*
X138607534Y-87831435D01*
X138568863Y-87819704D01*
X138533221Y-87800652D01*
X138501983Y-87775017D01*
X138476348Y-87743779D01*
X138457296Y-87708137D01*
X138445565Y-87669466D01*
X138441000Y-87623112D01*
X138441000Y-86971888D01*
X138445565Y-86925534D01*
X138457296Y-86886863D01*
X138476348Y-86851221D01*
X138501983Y-86819983D01*
X138533221Y-86794348D01*
X138568863Y-86775296D01*
X138607534Y-86763565D01*
X138653888Y-86759000D01*
X139730112Y-86759000D01*
X139776466Y-86763565D01*
X139776466Y-86763565D01*
G37*
G36*
X137744466Y-86763565D02*
X137783137Y-86775296D01*
X137818779Y-86794348D01*
X137850017Y-86819983D01*
X137875652Y-86851221D01*
X137894704Y-86886863D01*
X137906435Y-86925534D01*
X137911000Y-86971888D01*
X137911000Y-87623112D01*
X137906435Y-87669466D01*
X137894704Y-87708137D01*
X137875652Y-87743779D01*
X137850017Y-87775017D01*
X137818779Y-87800652D01*
X137783137Y-87819704D01*
X137744466Y-87831435D01*
X137698112Y-87836000D01*
X136621888Y-87836000D01*
X136575534Y-87831435D01*
X136536863Y-87819704D01*
X136501221Y-87800652D01*
X136469983Y-87775017D01*
X136444348Y-87743779D01*
X136425296Y-87708137D01*
X136413565Y-87669466D01*
X136409000Y-87623112D01*
X136409000Y-86971888D01*
X136413565Y-86925534D01*
X136425296Y-86886863D01*
X136444348Y-86851221D01*
X136469983Y-86819983D01*
X136501221Y-86794348D01*
X136536863Y-86775296D01*
X136575534Y-86763565D01*
X136621888Y-86759000D01*
X137698112Y-86759000D01*
X137744466Y-86763565D01*
X137744466Y-86763565D01*
G37*
G36*
X133680466Y-86763565D02*
X133719137Y-86775296D01*
X133754779Y-86794348D01*
X133786017Y-86819983D01*
X133811652Y-86851221D01*
X133830704Y-86886863D01*
X133842435Y-86925534D01*
X133847000Y-86971888D01*
X133847000Y-87623112D01*
X133842435Y-87669466D01*
X133830704Y-87708137D01*
X133811652Y-87743779D01*
X133786017Y-87775017D01*
X133754779Y-87800652D01*
X133719137Y-87819704D01*
X133680466Y-87831435D01*
X133634112Y-87836000D01*
X132557888Y-87836000D01*
X132511534Y-87831435D01*
X132472863Y-87819704D01*
X132437221Y-87800652D01*
X132405983Y-87775017D01*
X132380348Y-87743779D01*
X132361296Y-87708137D01*
X132349565Y-87669466D01*
X132345000Y-87623112D01*
X132345000Y-86971888D01*
X132349565Y-86925534D01*
X132361296Y-86886863D01*
X132380348Y-86851221D01*
X132405983Y-86819983D01*
X132437221Y-86794348D01*
X132472863Y-86775296D01*
X132511534Y-86763565D01*
X132557888Y-86759000D01*
X133634112Y-86759000D01*
X133680466Y-86763565D01*
X133680466Y-86763565D01*
G37*
G36*
X135712466Y-86763565D02*
X135751137Y-86775296D01*
X135786779Y-86794348D01*
X135818017Y-86819983D01*
X135843652Y-86851221D01*
X135862704Y-86886863D01*
X135874435Y-86925534D01*
X135879000Y-86971888D01*
X135879000Y-87623112D01*
X135874435Y-87669466D01*
X135862704Y-87708137D01*
X135843652Y-87743779D01*
X135818017Y-87775017D01*
X135786779Y-87800652D01*
X135751137Y-87819704D01*
X135712466Y-87831435D01*
X135666112Y-87836000D01*
X134589888Y-87836000D01*
X134543534Y-87831435D01*
X134504863Y-87819704D01*
X134469221Y-87800652D01*
X134437983Y-87775017D01*
X134412348Y-87743779D01*
X134393296Y-87708137D01*
X134381565Y-87669466D01*
X134377000Y-87623112D01*
X134377000Y-86971888D01*
X134381565Y-86925534D01*
X134393296Y-86886863D01*
X134412348Y-86851221D01*
X134437983Y-86819983D01*
X134469221Y-86794348D01*
X134504863Y-86775296D01*
X134543534Y-86763565D01*
X134589888Y-86759000D01*
X135666112Y-86759000D01*
X135712466Y-86763565D01*
X135712466Y-86763565D01*
G37*
G36*
X141808466Y-86763565D02*
X141847137Y-86775296D01*
X141882779Y-86794348D01*
X141914017Y-86819983D01*
X141939652Y-86851221D01*
X141958704Y-86886863D01*
X141970435Y-86925534D01*
X141975000Y-86971888D01*
X141975000Y-87623112D01*
X141970435Y-87669466D01*
X141958704Y-87708137D01*
X141939652Y-87743779D01*
X141914017Y-87775017D01*
X141882779Y-87800652D01*
X141847137Y-87819704D01*
X141808466Y-87831435D01*
X141762112Y-87836000D01*
X140685888Y-87836000D01*
X140639534Y-87831435D01*
X140600863Y-87819704D01*
X140565221Y-87800652D01*
X140533983Y-87775017D01*
X140508348Y-87743779D01*
X140489296Y-87708137D01*
X140477565Y-87669466D01*
X140473000Y-87623112D01*
X140473000Y-86971888D01*
X140477565Y-86925534D01*
X140489296Y-86886863D01*
X140508348Y-86851221D01*
X140533983Y-86819983D01*
X140565221Y-86794348D01*
X140600863Y-86775296D01*
X140639534Y-86763565D01*
X140685888Y-86759000D01*
X141762112Y-86759000D01*
X141808466Y-86763565D01*
X141808466Y-86763565D01*
G37*
G36*
X154776267Y-85511965D02*
X154814938Y-85523696D01*
X154850580Y-85542748D01*
X154881818Y-85568383D01*
X154907453Y-85599621D01*
X154926505Y-85635263D01*
X154938236Y-85673934D01*
X154942801Y-85720288D01*
X154942801Y-86796512D01*
X154938236Y-86842866D01*
X154926505Y-86881537D01*
X154907453Y-86917179D01*
X154881818Y-86948417D01*
X154850580Y-86974052D01*
X154814938Y-86993104D01*
X154776267Y-87004835D01*
X154729913Y-87009400D01*
X154078689Y-87009400D01*
X154032335Y-87004835D01*
X153993664Y-86993104D01*
X153958022Y-86974052D01*
X153926784Y-86948417D01*
X153901149Y-86917179D01*
X153882097Y-86881537D01*
X153870366Y-86842866D01*
X153865801Y-86796512D01*
X153865801Y-85720288D01*
X153870366Y-85673934D01*
X153882097Y-85635263D01*
X153901149Y-85599621D01*
X153926784Y-85568383D01*
X153958022Y-85542748D01*
X153993664Y-85523696D01*
X154032335Y-85511965D01*
X154078689Y-85507400D01*
X154729913Y-85507400D01*
X154776267Y-85511965D01*
X154776267Y-85511965D01*
G37*
G36*
X152901265Y-85511965D02*
X152939936Y-85523696D01*
X152975578Y-85542748D01*
X153006816Y-85568383D01*
X153032451Y-85599621D01*
X153051503Y-85635263D01*
X153063234Y-85673934D01*
X153067799Y-85720288D01*
X153067799Y-86796512D01*
X153063234Y-86842866D01*
X153051503Y-86881537D01*
X153032451Y-86917179D01*
X153006816Y-86948417D01*
X152975578Y-86974052D01*
X152939936Y-86993104D01*
X152901265Y-87004835D01*
X152854911Y-87009400D01*
X152203687Y-87009400D01*
X152157333Y-87004835D01*
X152118662Y-86993104D01*
X152083020Y-86974052D01*
X152051782Y-86948417D01*
X152026147Y-86917179D01*
X152007095Y-86881537D01*
X151995364Y-86842866D01*
X151990799Y-86796512D01*
X151990799Y-85720288D01*
X151995364Y-85673934D01*
X152007095Y-85635263D01*
X152026147Y-85599621D01*
X152051782Y-85568383D01*
X152083020Y-85542748D01*
X152118662Y-85523696D01*
X152157333Y-85511965D01*
X152203687Y-85507400D01*
X152854911Y-85507400D01*
X152901265Y-85511965D01*
X152901265Y-85511965D01*
G37*
G36*
X130947000Y-86825100D02*
X128845000Y-86825100D01*
X128845000Y-82923100D01*
X130947000Y-82923100D01*
X130947000Y-86825100D01*
X130947000Y-86825100D01*
G37*
G36*
X137744466Y-84888565D02*
X137783137Y-84900296D01*
X137818779Y-84919348D01*
X137850017Y-84944983D01*
X137875652Y-84976221D01*
X137894704Y-85011863D01*
X137906435Y-85050534D01*
X137911000Y-85096888D01*
X137911000Y-85748112D01*
X137906435Y-85794466D01*
X137894704Y-85833137D01*
X137875652Y-85868779D01*
X137850017Y-85900017D01*
X137818779Y-85925652D01*
X137783137Y-85944704D01*
X137744466Y-85956435D01*
X137698112Y-85961000D01*
X136621888Y-85961000D01*
X136575534Y-85956435D01*
X136536863Y-85944704D01*
X136501221Y-85925652D01*
X136469983Y-85900017D01*
X136444348Y-85868779D01*
X136425296Y-85833137D01*
X136413565Y-85794466D01*
X136409000Y-85748112D01*
X136409000Y-85096888D01*
X136413565Y-85050534D01*
X136425296Y-85011863D01*
X136444348Y-84976221D01*
X136469983Y-84944983D01*
X136501221Y-84919348D01*
X136536863Y-84900296D01*
X136575534Y-84888565D01*
X136621888Y-84884000D01*
X137698112Y-84884000D01*
X137744466Y-84888565D01*
X137744466Y-84888565D01*
G37*
G36*
X135712466Y-84888565D02*
X135751137Y-84900296D01*
X135786779Y-84919348D01*
X135818017Y-84944983D01*
X135843652Y-84976221D01*
X135862704Y-85011863D01*
X135874435Y-85050534D01*
X135879000Y-85096888D01*
X135879000Y-85748112D01*
X135874435Y-85794466D01*
X135862704Y-85833137D01*
X135843652Y-85868779D01*
X135818017Y-85900017D01*
X135786779Y-85925652D01*
X135751137Y-85944704D01*
X135712466Y-85956435D01*
X135666112Y-85961000D01*
X134589888Y-85961000D01*
X134543534Y-85956435D01*
X134504863Y-85944704D01*
X134469221Y-85925652D01*
X134437983Y-85900017D01*
X134412348Y-85868779D01*
X134393296Y-85833137D01*
X134381565Y-85794466D01*
X134377000Y-85748112D01*
X134377000Y-85096888D01*
X134381565Y-85050534D01*
X134393296Y-85011863D01*
X134412348Y-84976221D01*
X134437983Y-84944983D01*
X134469221Y-84919348D01*
X134504863Y-84900296D01*
X134543534Y-84888565D01*
X134589888Y-84884000D01*
X135666112Y-84884000D01*
X135712466Y-84888565D01*
X135712466Y-84888565D01*
G37*
G36*
X139776466Y-84888565D02*
X139815137Y-84900296D01*
X139850779Y-84919348D01*
X139882017Y-84944983D01*
X139907652Y-84976221D01*
X139926704Y-85011863D01*
X139938435Y-85050534D01*
X139943000Y-85096888D01*
X139943000Y-85748112D01*
X139938435Y-85794466D01*
X139926704Y-85833137D01*
X139907652Y-85868779D01*
X139882017Y-85900017D01*
X139850779Y-85925652D01*
X139815137Y-85944704D01*
X139776466Y-85956435D01*
X139730112Y-85961000D01*
X138653888Y-85961000D01*
X138607534Y-85956435D01*
X138568863Y-85944704D01*
X138533221Y-85925652D01*
X138501983Y-85900017D01*
X138476348Y-85868779D01*
X138457296Y-85833137D01*
X138445565Y-85794466D01*
X138441000Y-85748112D01*
X138441000Y-85096888D01*
X138445565Y-85050534D01*
X138457296Y-85011863D01*
X138476348Y-84976221D01*
X138501983Y-84944983D01*
X138533221Y-84919348D01*
X138568863Y-84900296D01*
X138607534Y-84888565D01*
X138653888Y-84884000D01*
X139730112Y-84884000D01*
X139776466Y-84888565D01*
X139776466Y-84888565D01*
G37*
G36*
X141808466Y-84888565D02*
X141847137Y-84900296D01*
X141882779Y-84919348D01*
X141914017Y-84944983D01*
X141939652Y-84976221D01*
X141958704Y-85011863D01*
X141970435Y-85050534D01*
X141975000Y-85096888D01*
X141975000Y-85748112D01*
X141970435Y-85794466D01*
X141958704Y-85833137D01*
X141939652Y-85868779D01*
X141914017Y-85900017D01*
X141882779Y-85925652D01*
X141847137Y-85944704D01*
X141808466Y-85956435D01*
X141762112Y-85961000D01*
X140685888Y-85961000D01*
X140639534Y-85956435D01*
X140600863Y-85944704D01*
X140565221Y-85925652D01*
X140533983Y-85900017D01*
X140508348Y-85868779D01*
X140489296Y-85833137D01*
X140477565Y-85794466D01*
X140473000Y-85748112D01*
X140473000Y-85096888D01*
X140477565Y-85050534D01*
X140489296Y-85011863D01*
X140508348Y-84976221D01*
X140533983Y-84944983D01*
X140565221Y-84919348D01*
X140600863Y-84900296D01*
X140639534Y-84888565D01*
X140685888Y-84884000D01*
X141762112Y-84884000D01*
X141808466Y-84888565D01*
X141808466Y-84888565D01*
G37*
G36*
X133680466Y-84888565D02*
X133719137Y-84900296D01*
X133754779Y-84919348D01*
X133786017Y-84944983D01*
X133811652Y-84976221D01*
X133830704Y-85011863D01*
X133842435Y-85050534D01*
X133847000Y-85096888D01*
X133847000Y-85748112D01*
X133842435Y-85794466D01*
X133830704Y-85833137D01*
X133811652Y-85868779D01*
X133786017Y-85900017D01*
X133754779Y-85925652D01*
X133719137Y-85944704D01*
X133680466Y-85956435D01*
X133634112Y-85961000D01*
X132557888Y-85961000D01*
X132511534Y-85956435D01*
X132472863Y-85944704D01*
X132437221Y-85925652D01*
X132405983Y-85900017D01*
X132380348Y-85868779D01*
X132361296Y-85833137D01*
X132349565Y-85794466D01*
X132345000Y-85748112D01*
X132345000Y-85096888D01*
X132349565Y-85050534D01*
X132361296Y-85011863D01*
X132380348Y-84976221D01*
X132405983Y-84944983D01*
X132437221Y-84919348D01*
X132472863Y-84900296D01*
X132511534Y-84888565D01*
X132557888Y-84884000D01*
X133634112Y-84884000D01*
X133680466Y-84888565D01*
X133680466Y-84888565D01*
G37*
G36*
X124647000Y-85675100D02*
X122545000Y-85675100D01*
X122545000Y-84073100D01*
X124647000Y-84073100D01*
X124647000Y-85675100D01*
X124647000Y-85675100D01*
G37*
G36*
X163051443Y-83839919D02*
X163117627Y-83846437D01*
X163230853Y-83880784D01*
X163287467Y-83897957D01*
X163426087Y-83972052D01*
X163443991Y-83981622D01*
X163479483Y-84010750D01*
X163581186Y-84094214D01*
X163657972Y-84187779D01*
X163693778Y-84231409D01*
X163693779Y-84231411D01*
X163777443Y-84387933D01*
X163777443Y-84387934D01*
X163828963Y-84557773D01*
X163846359Y-84734400D01*
X163828963Y-84911027D01*
X163800862Y-85003663D01*
X163777443Y-85080867D01*
X163768879Y-85096888D01*
X163693778Y-85237391D01*
X163664448Y-85273129D01*
X163581186Y-85374586D01*
X163479729Y-85457848D01*
X163443991Y-85487178D01*
X163443989Y-85487179D01*
X163287467Y-85570843D01*
X163236640Y-85586261D01*
X163117627Y-85622363D01*
X163069906Y-85627063D01*
X162985260Y-85635400D01*
X162896740Y-85635400D01*
X162812094Y-85627063D01*
X162764373Y-85622363D01*
X162645360Y-85586261D01*
X162594533Y-85570843D01*
X162438011Y-85487179D01*
X162438009Y-85487178D01*
X162402271Y-85457848D01*
X162300814Y-85374586D01*
X162217552Y-85273129D01*
X162188222Y-85237391D01*
X162113121Y-85096888D01*
X162104557Y-85080867D01*
X162081138Y-85003663D01*
X162053037Y-84911027D01*
X162035641Y-84734400D01*
X162053037Y-84557773D01*
X162104557Y-84387934D01*
X162104557Y-84387933D01*
X162188221Y-84231411D01*
X162188222Y-84231409D01*
X162224028Y-84187779D01*
X162300814Y-84094214D01*
X162402517Y-84010750D01*
X162438009Y-83981622D01*
X162455913Y-83972052D01*
X162594533Y-83897957D01*
X162651147Y-83880784D01*
X162764373Y-83846437D01*
X162830557Y-83839919D01*
X162896740Y-83833400D01*
X162985260Y-83833400D01*
X163051443Y-83839919D01*
X163051443Y-83839919D01*
G37*
G36*
X119998443Y-83433519D02*
X120064627Y-83440037D01*
X120170819Y-83472250D01*
X120234467Y-83491557D01*
X120373087Y-83565652D01*
X120390991Y-83575222D01*
X120426729Y-83604552D01*
X120528186Y-83687814D01*
X120611448Y-83789271D01*
X120640778Y-83825009D01*
X120640779Y-83825011D01*
X120724443Y-83981533D01*
X120724470Y-83981622D01*
X120775963Y-84151373D01*
X120793359Y-84328000D01*
X120775963Y-84504627D01*
X120741616Y-84617853D01*
X120724443Y-84674467D01*
X120691018Y-84737000D01*
X120640778Y-84830991D01*
X120611448Y-84866729D01*
X120528186Y-84968186D01*
X120428236Y-85050212D01*
X120390991Y-85080778D01*
X120390989Y-85080779D01*
X120234467Y-85164443D01*
X120177853Y-85181616D01*
X120064627Y-85215963D01*
X119998443Y-85222481D01*
X119932260Y-85229000D01*
X119843740Y-85229000D01*
X119777557Y-85222481D01*
X119711373Y-85215963D01*
X119598147Y-85181616D01*
X119541533Y-85164443D01*
X119385011Y-85080779D01*
X119385009Y-85080778D01*
X119347764Y-85050212D01*
X119247814Y-84968186D01*
X119164552Y-84866729D01*
X119135222Y-84830991D01*
X119084982Y-84737000D01*
X119051557Y-84674467D01*
X119034384Y-84617853D01*
X119000037Y-84504627D01*
X118982641Y-84328000D01*
X119000037Y-84151373D01*
X119051530Y-83981622D01*
X119051557Y-83981533D01*
X119135221Y-83825011D01*
X119135222Y-83825009D01*
X119164552Y-83789271D01*
X119247814Y-83687814D01*
X119349271Y-83604552D01*
X119385009Y-83575222D01*
X119402913Y-83565652D01*
X119541533Y-83491557D01*
X119605181Y-83472250D01*
X119711373Y-83440037D01*
X119777557Y-83433519D01*
X119843740Y-83427000D01*
X119932260Y-83427000D01*
X119998443Y-83433519D01*
X119998443Y-83433519D01*
G37*
G36*
X153163700Y-84737000D02*
X145311700Y-84737000D01*
X145311700Y-83635000D01*
X153163700Y-83635000D01*
X153163700Y-84737000D01*
X153163700Y-84737000D01*
G37*
G36*
X139776466Y-83207565D02*
X139815137Y-83219296D01*
X139850779Y-83238348D01*
X139882017Y-83263983D01*
X139907652Y-83295221D01*
X139926704Y-83330863D01*
X139938435Y-83369534D01*
X139943000Y-83415888D01*
X139943000Y-84067112D01*
X139938435Y-84113466D01*
X139926704Y-84152137D01*
X139907652Y-84187779D01*
X139882017Y-84219017D01*
X139850779Y-84244652D01*
X139815137Y-84263704D01*
X139776466Y-84275435D01*
X139730112Y-84280000D01*
X138653888Y-84280000D01*
X138607534Y-84275435D01*
X138568863Y-84263704D01*
X138533221Y-84244652D01*
X138501983Y-84219017D01*
X138476348Y-84187779D01*
X138457296Y-84152137D01*
X138445565Y-84113466D01*
X138441000Y-84067112D01*
X138441000Y-83415888D01*
X138445565Y-83369534D01*
X138457296Y-83330863D01*
X138476348Y-83295221D01*
X138501983Y-83263983D01*
X138533221Y-83238348D01*
X138568863Y-83219296D01*
X138607534Y-83207565D01*
X138653888Y-83203000D01*
X139730112Y-83203000D01*
X139776466Y-83207565D01*
X139776466Y-83207565D01*
G37*
G36*
X133680466Y-83207565D02*
X133719137Y-83219296D01*
X133754779Y-83238348D01*
X133786017Y-83263983D01*
X133811652Y-83295221D01*
X133830704Y-83330863D01*
X133842435Y-83369534D01*
X133847000Y-83415888D01*
X133847000Y-84067112D01*
X133842435Y-84113466D01*
X133830704Y-84152137D01*
X133811652Y-84187779D01*
X133786017Y-84219017D01*
X133754779Y-84244652D01*
X133719137Y-84263704D01*
X133680466Y-84275435D01*
X133634112Y-84280000D01*
X132557888Y-84280000D01*
X132511534Y-84275435D01*
X132472863Y-84263704D01*
X132437221Y-84244652D01*
X132405983Y-84219017D01*
X132380348Y-84187779D01*
X132361296Y-84152137D01*
X132349565Y-84113466D01*
X132345000Y-84067112D01*
X132345000Y-83415888D01*
X132349565Y-83369534D01*
X132361296Y-83330863D01*
X132380348Y-83295221D01*
X132405983Y-83263983D01*
X132437221Y-83238348D01*
X132472863Y-83219296D01*
X132511534Y-83207565D01*
X132557888Y-83203000D01*
X133634112Y-83203000D01*
X133680466Y-83207565D01*
X133680466Y-83207565D01*
G37*
G36*
X137744466Y-83207565D02*
X137783137Y-83219296D01*
X137818779Y-83238348D01*
X137850017Y-83263983D01*
X137875652Y-83295221D01*
X137894704Y-83330863D01*
X137906435Y-83369534D01*
X137911000Y-83415888D01*
X137911000Y-84067112D01*
X137906435Y-84113466D01*
X137894704Y-84152137D01*
X137875652Y-84187779D01*
X137850017Y-84219017D01*
X137818779Y-84244652D01*
X137783137Y-84263704D01*
X137744466Y-84275435D01*
X137698112Y-84280000D01*
X136621888Y-84280000D01*
X136575534Y-84275435D01*
X136536863Y-84263704D01*
X136501221Y-84244652D01*
X136469983Y-84219017D01*
X136444348Y-84187779D01*
X136425296Y-84152137D01*
X136413565Y-84113466D01*
X136409000Y-84067112D01*
X136409000Y-83415888D01*
X136413565Y-83369534D01*
X136425296Y-83330863D01*
X136444348Y-83295221D01*
X136469983Y-83263983D01*
X136501221Y-83238348D01*
X136536863Y-83219296D01*
X136575534Y-83207565D01*
X136621888Y-83203000D01*
X137698112Y-83203000D01*
X137744466Y-83207565D01*
X137744466Y-83207565D01*
G37*
G36*
X135712466Y-83207565D02*
X135751137Y-83219296D01*
X135786779Y-83238348D01*
X135818017Y-83263983D01*
X135843652Y-83295221D01*
X135862704Y-83330863D01*
X135874435Y-83369534D01*
X135879000Y-83415888D01*
X135879000Y-84067112D01*
X135874435Y-84113466D01*
X135862704Y-84152137D01*
X135843652Y-84187779D01*
X135818017Y-84219017D01*
X135786779Y-84244652D01*
X135751137Y-84263704D01*
X135712466Y-84275435D01*
X135666112Y-84280000D01*
X134589888Y-84280000D01*
X134543534Y-84275435D01*
X134504863Y-84263704D01*
X134469221Y-84244652D01*
X134437983Y-84219017D01*
X134412348Y-84187779D01*
X134393296Y-84152137D01*
X134381565Y-84113466D01*
X134377000Y-84067112D01*
X134377000Y-83415888D01*
X134381565Y-83369534D01*
X134393296Y-83330863D01*
X134412348Y-83295221D01*
X134437983Y-83263983D01*
X134469221Y-83238348D01*
X134504863Y-83219296D01*
X134543534Y-83207565D01*
X134589888Y-83203000D01*
X135666112Y-83203000D01*
X135712466Y-83207565D01*
X135712466Y-83207565D01*
G37*
G36*
X124647000Y-83375100D02*
X122545000Y-83375100D01*
X122545000Y-81773100D01*
X124647000Y-81773100D01*
X124647000Y-83375100D01*
X124647000Y-83375100D01*
G37*
G36*
X163842000Y-83095400D02*
X162040000Y-83095400D01*
X162040000Y-81293400D01*
X163842000Y-81293400D01*
X163842000Y-83095400D01*
X163842000Y-83095400D01*
G37*
G36*
X120789000Y-82689000D02*
X118987000Y-82689000D01*
X118987000Y-80887000D01*
X120789000Y-80887000D01*
X120789000Y-82689000D01*
X120789000Y-82689000D01*
G37*
G36*
X144088700Y-82412000D02*
X142986700Y-82412000D01*
X142986700Y-74560000D01*
X144088700Y-74560000D01*
X144088700Y-82412000D01*
X144088700Y-82412000D01*
G37*
G36*
X155488700Y-82412000D02*
X154386700Y-82412000D01*
X154386700Y-74560000D01*
X155488700Y-74560000D01*
X155488700Y-82412000D01*
X155488700Y-82412000D01*
G37*
G36*
X135712466Y-81332565D02*
X135751137Y-81344296D01*
X135786779Y-81363348D01*
X135818017Y-81388983D01*
X135843652Y-81420221D01*
X135862704Y-81455863D01*
X135874435Y-81494534D01*
X135879000Y-81540888D01*
X135879000Y-82192112D01*
X135874435Y-82238466D01*
X135862704Y-82277137D01*
X135843652Y-82312779D01*
X135818017Y-82344017D01*
X135786779Y-82369652D01*
X135751137Y-82388704D01*
X135712466Y-82400435D01*
X135666112Y-82405000D01*
X134589888Y-82405000D01*
X134543534Y-82400435D01*
X134504863Y-82388704D01*
X134469221Y-82369652D01*
X134437983Y-82344017D01*
X134412348Y-82312779D01*
X134393296Y-82277137D01*
X134381565Y-82238466D01*
X134377000Y-82192112D01*
X134377000Y-81540888D01*
X134381565Y-81494534D01*
X134393296Y-81455863D01*
X134412348Y-81420221D01*
X134437983Y-81388983D01*
X134469221Y-81363348D01*
X134504863Y-81344296D01*
X134543534Y-81332565D01*
X134589888Y-81328000D01*
X135666112Y-81328000D01*
X135712466Y-81332565D01*
X135712466Y-81332565D01*
G37*
G36*
X139776466Y-81332565D02*
X139815137Y-81344296D01*
X139850779Y-81363348D01*
X139882017Y-81388983D01*
X139907652Y-81420221D01*
X139926704Y-81455863D01*
X139938435Y-81494534D01*
X139943000Y-81540888D01*
X139943000Y-82192112D01*
X139938435Y-82238466D01*
X139926704Y-82277137D01*
X139907652Y-82312779D01*
X139882017Y-82344017D01*
X139850779Y-82369652D01*
X139815137Y-82388704D01*
X139776466Y-82400435D01*
X139730112Y-82405000D01*
X138653888Y-82405000D01*
X138607534Y-82400435D01*
X138568863Y-82388704D01*
X138533221Y-82369652D01*
X138501983Y-82344017D01*
X138476348Y-82312779D01*
X138457296Y-82277137D01*
X138445565Y-82238466D01*
X138441000Y-82192112D01*
X138441000Y-81540888D01*
X138445565Y-81494534D01*
X138457296Y-81455863D01*
X138476348Y-81420221D01*
X138501983Y-81388983D01*
X138533221Y-81363348D01*
X138568863Y-81344296D01*
X138607534Y-81332565D01*
X138653888Y-81328000D01*
X139730112Y-81328000D01*
X139776466Y-81332565D01*
X139776466Y-81332565D01*
G37*
G36*
X133680466Y-81332565D02*
X133719137Y-81344296D01*
X133754779Y-81363348D01*
X133786017Y-81388983D01*
X133811652Y-81420221D01*
X133830704Y-81455863D01*
X133842435Y-81494534D01*
X133847000Y-81540888D01*
X133847000Y-82192112D01*
X133842435Y-82238466D01*
X133830704Y-82277137D01*
X133811652Y-82312779D01*
X133786017Y-82344017D01*
X133754779Y-82369652D01*
X133719137Y-82388704D01*
X133680466Y-82400435D01*
X133634112Y-82405000D01*
X132557888Y-82405000D01*
X132511534Y-82400435D01*
X132472863Y-82388704D01*
X132437221Y-82369652D01*
X132405983Y-82344017D01*
X132380348Y-82312779D01*
X132361296Y-82277137D01*
X132349565Y-82238466D01*
X132345000Y-82192112D01*
X132345000Y-81540888D01*
X132349565Y-81494534D01*
X132361296Y-81455863D01*
X132380348Y-81420221D01*
X132405983Y-81388983D01*
X132437221Y-81363348D01*
X132472863Y-81344296D01*
X132511534Y-81332565D01*
X132557888Y-81328000D01*
X133634112Y-81328000D01*
X133680466Y-81332565D01*
X133680466Y-81332565D01*
G37*
G36*
X137744466Y-81332565D02*
X137783137Y-81344296D01*
X137818779Y-81363348D01*
X137850017Y-81388983D01*
X137875652Y-81420221D01*
X137894704Y-81455863D01*
X137906435Y-81494534D01*
X137911000Y-81540888D01*
X137911000Y-82192112D01*
X137906435Y-82238466D01*
X137894704Y-82277137D01*
X137875652Y-82312779D01*
X137850017Y-82344017D01*
X137818779Y-82369652D01*
X137783137Y-82388704D01*
X137744466Y-82400435D01*
X137698112Y-82405000D01*
X136621888Y-82405000D01*
X136575534Y-82400435D01*
X136536863Y-82388704D01*
X136501221Y-82369652D01*
X136469983Y-82344017D01*
X136444348Y-82312779D01*
X136425296Y-82277137D01*
X136413565Y-82238466D01*
X136409000Y-82192112D01*
X136409000Y-81540888D01*
X136413565Y-81494534D01*
X136425296Y-81455863D01*
X136444348Y-81420221D01*
X136469983Y-81388983D01*
X136501221Y-81363348D01*
X136536863Y-81344296D01*
X136575534Y-81332565D01*
X136621888Y-81328000D01*
X137698112Y-81328000D01*
X137744466Y-81332565D01*
X137744466Y-81332565D01*
G37*
G36*
X139776466Y-79573065D02*
X139815137Y-79584796D01*
X139850779Y-79603848D01*
X139882017Y-79629483D01*
X139907652Y-79660721D01*
X139926704Y-79696363D01*
X139938435Y-79735034D01*
X139943000Y-79781388D01*
X139943000Y-80432612D01*
X139938435Y-80478966D01*
X139926704Y-80517637D01*
X139907652Y-80553279D01*
X139882017Y-80584517D01*
X139850779Y-80610152D01*
X139815137Y-80629204D01*
X139776466Y-80640935D01*
X139730112Y-80645500D01*
X138653888Y-80645500D01*
X138607534Y-80640935D01*
X138568863Y-80629204D01*
X138533221Y-80610152D01*
X138501983Y-80584517D01*
X138476348Y-80553279D01*
X138457296Y-80517637D01*
X138445565Y-80478966D01*
X138441000Y-80432612D01*
X138441000Y-79781388D01*
X138445565Y-79735034D01*
X138457296Y-79696363D01*
X138476348Y-79660721D01*
X138501983Y-79629483D01*
X138533221Y-79603848D01*
X138568863Y-79584796D01*
X138607534Y-79573065D01*
X138653888Y-79568500D01*
X139730112Y-79568500D01*
X139776466Y-79573065D01*
X139776466Y-79573065D01*
G37*
G36*
X139776466Y-77698065D02*
X139815137Y-77709796D01*
X139850779Y-77728848D01*
X139882017Y-77754483D01*
X139907652Y-77785721D01*
X139926704Y-77821363D01*
X139938435Y-77860034D01*
X139943000Y-77906388D01*
X139943000Y-78557612D01*
X139938435Y-78603966D01*
X139926704Y-78642637D01*
X139907652Y-78678279D01*
X139882017Y-78709517D01*
X139850779Y-78735152D01*
X139815137Y-78754204D01*
X139776466Y-78765935D01*
X139730112Y-78770500D01*
X138653888Y-78770500D01*
X138607534Y-78765935D01*
X138568863Y-78754204D01*
X138533221Y-78735152D01*
X138501983Y-78709517D01*
X138476348Y-78678279D01*
X138457296Y-78642637D01*
X138445565Y-78603966D01*
X138441000Y-78557612D01*
X138441000Y-77906388D01*
X138445565Y-77860034D01*
X138457296Y-77821363D01*
X138476348Y-77785721D01*
X138501983Y-77754483D01*
X138533221Y-77728848D01*
X138568863Y-77709796D01*
X138607534Y-77698065D01*
X138653888Y-77693500D01*
X139730112Y-77693500D01*
X139776466Y-77698065D01*
X139776466Y-77698065D01*
G37*
G36*
X120789000Y-77482000D02*
X118987000Y-77482000D01*
X118987000Y-75680000D01*
X120789000Y-75680000D01*
X120789000Y-77482000D01*
X120789000Y-77482000D01*
G37*
G36*
X163076842Y-75534118D02*
X163143027Y-75540637D01*
X163206858Y-75560000D01*
X163312867Y-75592157D01*
X163451487Y-75666252D01*
X163469391Y-75675822D01*
X163505129Y-75705152D01*
X163606586Y-75788414D01*
X163689848Y-75889871D01*
X163719178Y-75925609D01*
X163719179Y-75925611D01*
X163802843Y-76082133D01*
X163802843Y-76082134D01*
X163854363Y-76251973D01*
X163871759Y-76428600D01*
X163854363Y-76605227D01*
X163820016Y-76718453D01*
X163802843Y-76775067D01*
X163729650Y-76912000D01*
X163719178Y-76931591D01*
X163704439Y-76949550D01*
X163606586Y-77068786D01*
X163505129Y-77152048D01*
X163469391Y-77181378D01*
X163469389Y-77181379D01*
X163312867Y-77265043D01*
X163256253Y-77282216D01*
X163143027Y-77316563D01*
X163076843Y-77323081D01*
X163010660Y-77329600D01*
X162922140Y-77329600D01*
X162855957Y-77323081D01*
X162789773Y-77316563D01*
X162676547Y-77282216D01*
X162619933Y-77265043D01*
X162463411Y-77181379D01*
X162463409Y-77181378D01*
X162427671Y-77152048D01*
X162326214Y-77068786D01*
X162228361Y-76949550D01*
X162213622Y-76931591D01*
X162203150Y-76912000D01*
X162129957Y-76775067D01*
X162112784Y-76718453D01*
X162078437Y-76605227D01*
X162061041Y-76428600D01*
X162078437Y-76251973D01*
X162129957Y-76082134D01*
X162129957Y-76082133D01*
X162213621Y-75925611D01*
X162213622Y-75925609D01*
X162242952Y-75889871D01*
X162326214Y-75788414D01*
X162427671Y-75705152D01*
X162463409Y-75675822D01*
X162481313Y-75666252D01*
X162619933Y-75592157D01*
X162725942Y-75560000D01*
X162789773Y-75540637D01*
X162855958Y-75534118D01*
X162922140Y-75527600D01*
X163010660Y-75527600D01*
X163076842Y-75534118D01*
X163076842Y-75534118D01*
G37*
G36*
X157835866Y-76146365D02*
X157874537Y-76158096D01*
X157910179Y-76177148D01*
X157941417Y-76202783D01*
X157967052Y-76234021D01*
X157986104Y-76269663D01*
X157997835Y-76308334D01*
X158002400Y-76354688D01*
X158002400Y-77005912D01*
X157997835Y-77052266D01*
X157986104Y-77090937D01*
X157967052Y-77126579D01*
X157941417Y-77157817D01*
X157910179Y-77183452D01*
X157874537Y-77202504D01*
X157835866Y-77214235D01*
X157789512Y-77218800D01*
X156713288Y-77218800D01*
X156666934Y-77214235D01*
X156628263Y-77202504D01*
X156592621Y-77183452D01*
X156561383Y-77157817D01*
X156535748Y-77126579D01*
X156516696Y-77090937D01*
X156504965Y-77052266D01*
X156500400Y-77005912D01*
X156500400Y-76354688D01*
X156504965Y-76308334D01*
X156516696Y-76269663D01*
X156535748Y-76234021D01*
X156561383Y-76202783D01*
X156592621Y-76177148D01*
X156628263Y-76158096D01*
X156666934Y-76146365D01*
X156713288Y-76141800D01*
X157789512Y-76141800D01*
X157835866Y-76146365D01*
X157835866Y-76146365D01*
G37*
G36*
X157835866Y-74271365D02*
X157874537Y-74283096D01*
X157910179Y-74302148D01*
X157941417Y-74327783D01*
X157967052Y-74359021D01*
X157986104Y-74394663D01*
X157997835Y-74433334D01*
X158002400Y-74479688D01*
X158002400Y-75130912D01*
X157997835Y-75177266D01*
X157986104Y-75215937D01*
X157967052Y-75251579D01*
X157941417Y-75282817D01*
X157910179Y-75308452D01*
X157874537Y-75327504D01*
X157835866Y-75339235D01*
X157789512Y-75343800D01*
X156713288Y-75343800D01*
X156666934Y-75339235D01*
X156628263Y-75327504D01*
X156592621Y-75308452D01*
X156561383Y-75282817D01*
X156535748Y-75251579D01*
X156516696Y-75215937D01*
X156504965Y-75177266D01*
X156500400Y-75130912D01*
X156500400Y-74479688D01*
X156504965Y-74433334D01*
X156516696Y-74394663D01*
X156535748Y-74359021D01*
X156561383Y-74327783D01*
X156592621Y-74302148D01*
X156628263Y-74283096D01*
X156666934Y-74271365D01*
X156713288Y-74266800D01*
X157789512Y-74266800D01*
X157835866Y-74271365D01*
X157835866Y-74271365D01*
G37*
G36*
X163076843Y-72994119D02*
X163143027Y-73000637D01*
X163256253Y-73034984D01*
X163312867Y-73052157D01*
X163451487Y-73126252D01*
X163469391Y-73135822D01*
X163505129Y-73165152D01*
X163606586Y-73248414D01*
X163689848Y-73349871D01*
X163719178Y-73385609D01*
X163719179Y-73385611D01*
X163802843Y-73542133D01*
X163802843Y-73542134D01*
X163854363Y-73711973D01*
X163871759Y-73888600D01*
X163854363Y-74065227D01*
X163820016Y-74178453D01*
X163802843Y-74235067D01*
X163743728Y-74345661D01*
X163719178Y-74391591D01*
X163689848Y-74427329D01*
X163606586Y-74528786D01*
X163505129Y-74612048D01*
X163469391Y-74641378D01*
X163469389Y-74641379D01*
X163312867Y-74725043D01*
X163256253Y-74742216D01*
X163143027Y-74776563D01*
X163076842Y-74783082D01*
X163010660Y-74789600D01*
X162922140Y-74789600D01*
X162855958Y-74783082D01*
X162789773Y-74776563D01*
X162676547Y-74742216D01*
X162619933Y-74725043D01*
X162463411Y-74641379D01*
X162463409Y-74641378D01*
X162427671Y-74612048D01*
X162326214Y-74528786D01*
X162242952Y-74427329D01*
X162213622Y-74391591D01*
X162189072Y-74345661D01*
X162129957Y-74235067D01*
X162112784Y-74178453D01*
X162078437Y-74065227D01*
X162061041Y-73888600D01*
X162078437Y-73711973D01*
X162129957Y-73542134D01*
X162129957Y-73542133D01*
X162213621Y-73385611D01*
X162213622Y-73385609D01*
X162242952Y-73349871D01*
X162326214Y-73248414D01*
X162427671Y-73165152D01*
X162463409Y-73135822D01*
X162481313Y-73126252D01*
X162619933Y-73052157D01*
X162676547Y-73034984D01*
X162789773Y-73000637D01*
X162855957Y-72994119D01*
X162922140Y-72987600D01*
X163010660Y-72987600D01*
X163076843Y-72994119D01*
X163076843Y-72994119D01*
G37*
G36*
X153163700Y-73337000D02*
X145311700Y-73337000D01*
X145311700Y-72235000D01*
X153163700Y-72235000D01*
X153163700Y-73337000D01*
X153163700Y-73337000D01*
G37*
G36*
X163076843Y-70454119D02*
X163143027Y-70460637D01*
X163256253Y-70494984D01*
X163312867Y-70512157D01*
X163451487Y-70586252D01*
X163469391Y-70595822D01*
X163505129Y-70625152D01*
X163606586Y-70708414D01*
X163689848Y-70809871D01*
X163719178Y-70845609D01*
X163719179Y-70845611D01*
X163802843Y-71002133D01*
X163802843Y-71002134D01*
X163854363Y-71171973D01*
X163871759Y-71348600D01*
X163854363Y-71525227D01*
X163820016Y-71638453D01*
X163802843Y-71695067D01*
X163728748Y-71833687D01*
X163719178Y-71851591D01*
X163689848Y-71887329D01*
X163606586Y-71988786D01*
X163505129Y-72072048D01*
X163469391Y-72101378D01*
X163469389Y-72101379D01*
X163312867Y-72185043D01*
X163256253Y-72202216D01*
X163143027Y-72236563D01*
X163076842Y-72243082D01*
X163010660Y-72249600D01*
X162922140Y-72249600D01*
X162855958Y-72243082D01*
X162789773Y-72236563D01*
X162676547Y-72202216D01*
X162619933Y-72185043D01*
X162463411Y-72101379D01*
X162463409Y-72101378D01*
X162427671Y-72072048D01*
X162326214Y-71988786D01*
X162242952Y-71887329D01*
X162213622Y-71851591D01*
X162204052Y-71833687D01*
X162129957Y-71695067D01*
X162112784Y-71638453D01*
X162078437Y-71525227D01*
X162061041Y-71348600D01*
X162078437Y-71171973D01*
X162129957Y-71002134D01*
X162129957Y-71002133D01*
X162213621Y-70845611D01*
X162213622Y-70845609D01*
X162242952Y-70809871D01*
X162326214Y-70708414D01*
X162427671Y-70625152D01*
X162463409Y-70595822D01*
X162481313Y-70586252D01*
X162619933Y-70512157D01*
X162676547Y-70494984D01*
X162789773Y-70460637D01*
X162855957Y-70454119D01*
X162922140Y-70447600D01*
X163010660Y-70447600D01*
X163076843Y-70454119D01*
X163076843Y-70454119D01*
G37*
G36*
X120789000Y-72021000D02*
X118987000Y-72021000D01*
X118987000Y-70219000D01*
X120789000Y-70219000D01*
X120789000Y-72021000D01*
X120789000Y-72021000D01*
G37*
G36*
X163076842Y-67914118D02*
X163143027Y-67920637D01*
X163256253Y-67954984D01*
X163312867Y-67972157D01*
X163451487Y-68046252D01*
X163469391Y-68055822D01*
X163505129Y-68085152D01*
X163606586Y-68168414D01*
X163669916Y-68245583D01*
X163719178Y-68305609D01*
X163719179Y-68305611D01*
X163802843Y-68462133D01*
X163802843Y-68462134D01*
X163854363Y-68631973D01*
X163871759Y-68808600D01*
X163854363Y-68985227D01*
X163824707Y-69082989D01*
X163802843Y-69155067D01*
X163728748Y-69293687D01*
X163719178Y-69311591D01*
X163701790Y-69332778D01*
X163606586Y-69448786D01*
X163519337Y-69520388D01*
X163469391Y-69561378D01*
X163469389Y-69561379D01*
X163312867Y-69645043D01*
X163292398Y-69651252D01*
X163143027Y-69696563D01*
X163076842Y-69703082D01*
X163010660Y-69709600D01*
X162922140Y-69709600D01*
X162855958Y-69703082D01*
X162789773Y-69696563D01*
X162640402Y-69651252D01*
X162619933Y-69645043D01*
X162463411Y-69561379D01*
X162463409Y-69561378D01*
X162413463Y-69520388D01*
X162326214Y-69448786D01*
X162231010Y-69332778D01*
X162213622Y-69311591D01*
X162204052Y-69293687D01*
X162129957Y-69155067D01*
X162108093Y-69082989D01*
X162078437Y-68985227D01*
X162061041Y-68808600D01*
X162078437Y-68631973D01*
X162129957Y-68462134D01*
X162129957Y-68462133D01*
X162213621Y-68305611D01*
X162213622Y-68305609D01*
X162262884Y-68245583D01*
X162326214Y-68168414D01*
X162427671Y-68085152D01*
X162463409Y-68055822D01*
X162481313Y-68046252D01*
X162619933Y-67972157D01*
X162676547Y-67954984D01*
X162789773Y-67920637D01*
X162855958Y-67914118D01*
X162922140Y-67907600D01*
X163010660Y-67907600D01*
X163076842Y-67914118D01*
X163076842Y-67914118D01*
G37*
G36*
X145763866Y-68189165D02*
X145802537Y-68200896D01*
X145838179Y-68219948D01*
X145869417Y-68245583D01*
X145895052Y-68276821D01*
X145914104Y-68312463D01*
X145925835Y-68351134D01*
X145930400Y-68397488D01*
X145930400Y-69473712D01*
X145925835Y-69520066D01*
X145914104Y-69558737D01*
X145895052Y-69594379D01*
X145869417Y-69625617D01*
X145838179Y-69651252D01*
X145802537Y-69670304D01*
X145763866Y-69682035D01*
X145717512Y-69686600D01*
X145066288Y-69686600D01*
X145019934Y-69682035D01*
X144981263Y-69670304D01*
X144945621Y-69651252D01*
X144914383Y-69625617D01*
X144888748Y-69594379D01*
X144869696Y-69558737D01*
X144857965Y-69520066D01*
X144853400Y-69473712D01*
X144853400Y-68397488D01*
X144857965Y-68351134D01*
X144869696Y-68312463D01*
X144888748Y-68276821D01*
X144914383Y-68245583D01*
X144945621Y-68219948D01*
X144981263Y-68200896D01*
X145019934Y-68189165D01*
X145066288Y-68184600D01*
X145717512Y-68184600D01*
X145763866Y-68189165D01*
X145763866Y-68189165D01*
G37*
G36*
X147638866Y-68189165D02*
X147677537Y-68200896D01*
X147713179Y-68219948D01*
X147744417Y-68245583D01*
X147770052Y-68276821D01*
X147789104Y-68312463D01*
X147800835Y-68351134D01*
X147805400Y-68397488D01*
X147805400Y-69473712D01*
X147800835Y-69520066D01*
X147789104Y-69558737D01*
X147770052Y-69594379D01*
X147744417Y-69625617D01*
X147713179Y-69651252D01*
X147677537Y-69670304D01*
X147638866Y-69682035D01*
X147592512Y-69686600D01*
X146941288Y-69686600D01*
X146894934Y-69682035D01*
X146856263Y-69670304D01*
X146820621Y-69651252D01*
X146789383Y-69625617D01*
X146763748Y-69594379D01*
X146744696Y-69558737D01*
X146732965Y-69520066D01*
X146728400Y-69473712D01*
X146728400Y-68397488D01*
X146732965Y-68351134D01*
X146744696Y-68312463D01*
X146763748Y-68276821D01*
X146789383Y-68245583D01*
X146820621Y-68219948D01*
X146856263Y-68200896D01*
X146894934Y-68189165D01*
X146941288Y-68184600D01*
X147592512Y-68184600D01*
X147638866Y-68189165D01*
X147638866Y-68189165D01*
G37*
G36*
X143981266Y-68189165D02*
X144019937Y-68200896D01*
X144055579Y-68219948D01*
X144086817Y-68245583D01*
X144112452Y-68276821D01*
X144131504Y-68312463D01*
X144143235Y-68351134D01*
X144147800Y-68397488D01*
X144147800Y-69473712D01*
X144143235Y-69520066D01*
X144131504Y-69558737D01*
X144112452Y-69594379D01*
X144086817Y-69625617D01*
X144055579Y-69651252D01*
X144019937Y-69670304D01*
X143981266Y-69682035D01*
X143934912Y-69686600D01*
X143283688Y-69686600D01*
X143237334Y-69682035D01*
X143198663Y-69670304D01*
X143163021Y-69651252D01*
X143131783Y-69625617D01*
X143106148Y-69594379D01*
X143087096Y-69558737D01*
X143075365Y-69520066D01*
X143070800Y-69473712D01*
X143070800Y-68397488D01*
X143075365Y-68351134D01*
X143087096Y-68312463D01*
X143106148Y-68276821D01*
X143131783Y-68245583D01*
X143163021Y-68219948D01*
X143198663Y-68200896D01*
X143237334Y-68189165D01*
X143283688Y-68184600D01*
X143934912Y-68184600D01*
X143981266Y-68189165D01*
X143981266Y-68189165D01*
G37*
G36*
X142106266Y-68189165D02*
X142144937Y-68200896D01*
X142180579Y-68219948D01*
X142211817Y-68245583D01*
X142237452Y-68276821D01*
X142256504Y-68312463D01*
X142268235Y-68351134D01*
X142272800Y-68397488D01*
X142272800Y-69473712D01*
X142268235Y-69520066D01*
X142256504Y-69558737D01*
X142237452Y-69594379D01*
X142211817Y-69625617D01*
X142180579Y-69651252D01*
X142144937Y-69670304D01*
X142106266Y-69682035D01*
X142059912Y-69686600D01*
X141408688Y-69686600D01*
X141362334Y-69682035D01*
X141323663Y-69670304D01*
X141288021Y-69651252D01*
X141256783Y-69625617D01*
X141231148Y-69594379D01*
X141212096Y-69558737D01*
X141200365Y-69520066D01*
X141195800Y-69473712D01*
X141195800Y-68397488D01*
X141200365Y-68351134D01*
X141212096Y-68312463D01*
X141231148Y-68276821D01*
X141256783Y-68245583D01*
X141288021Y-68219948D01*
X141323663Y-68200896D01*
X141362334Y-68189165D01*
X141408688Y-68184600D01*
X142059912Y-68184600D01*
X142106266Y-68189165D01*
X142106266Y-68189165D01*
G37*
G36*
X119998443Y-67685519D02*
X120064627Y-67692037D01*
X120177853Y-67726384D01*
X120234467Y-67743557D01*
X120373087Y-67817652D01*
X120390991Y-67827222D01*
X120426729Y-67856552D01*
X120528186Y-67939814D01*
X120611448Y-68041271D01*
X120640778Y-68077009D01*
X120640779Y-68077011D01*
X120724443Y-68233533D01*
X120724443Y-68233534D01*
X120775963Y-68403373D01*
X120793359Y-68580000D01*
X120775963Y-68756627D01*
X120760197Y-68808600D01*
X120724443Y-68926467D01*
X120650348Y-69065087D01*
X120640778Y-69082991D01*
X120611448Y-69118729D01*
X120528186Y-69220186D01*
X120426729Y-69303448D01*
X120390991Y-69332778D01*
X120390989Y-69332779D01*
X120234467Y-69416443D01*
X120177853Y-69433616D01*
X120064627Y-69467963D01*
X120006255Y-69473712D01*
X119932260Y-69481000D01*
X119843740Y-69481000D01*
X119769745Y-69473712D01*
X119711373Y-69467963D01*
X119598147Y-69433616D01*
X119541533Y-69416443D01*
X119385011Y-69332779D01*
X119385009Y-69332778D01*
X119349271Y-69303448D01*
X119247814Y-69220186D01*
X119164552Y-69118729D01*
X119135222Y-69082991D01*
X119125652Y-69065087D01*
X119051557Y-68926467D01*
X119015803Y-68808600D01*
X119000037Y-68756627D01*
X118982641Y-68580000D01*
X119000037Y-68403373D01*
X119051557Y-68233534D01*
X119051557Y-68233533D01*
X119135221Y-68077011D01*
X119135222Y-68077009D01*
X119164552Y-68041271D01*
X119247814Y-67939814D01*
X119349271Y-67856552D01*
X119385009Y-67827222D01*
X119402913Y-67817652D01*
X119541533Y-67743557D01*
X119598147Y-67726384D01*
X119711373Y-67692037D01*
X119777557Y-67685519D01*
X119843740Y-67679000D01*
X119932260Y-67679000D01*
X119998443Y-67685519D01*
X119998443Y-67685519D01*
G37*
G36*
X147613466Y-66055565D02*
X147652137Y-66067296D01*
X147687779Y-66086348D01*
X147719017Y-66111983D01*
X147744652Y-66143221D01*
X147763704Y-66178863D01*
X147775435Y-66217534D01*
X147780000Y-66263888D01*
X147780000Y-67340112D01*
X147775435Y-67386466D01*
X147763704Y-67425137D01*
X147744652Y-67460779D01*
X147719017Y-67492017D01*
X147687779Y-67517652D01*
X147652137Y-67536704D01*
X147613466Y-67548435D01*
X147567112Y-67553000D01*
X146915888Y-67553000D01*
X146869534Y-67548435D01*
X146830863Y-67536704D01*
X146795221Y-67517652D01*
X146763983Y-67492017D01*
X146738348Y-67460779D01*
X146719296Y-67425137D01*
X146707565Y-67386466D01*
X146703000Y-67340112D01*
X146703000Y-66263888D01*
X146707565Y-66217534D01*
X146719296Y-66178863D01*
X146738348Y-66143221D01*
X146763983Y-66111983D01*
X146795221Y-66086348D01*
X146830863Y-66067296D01*
X146869534Y-66055565D01*
X146915888Y-66051000D01*
X147567112Y-66051000D01*
X147613466Y-66055565D01*
X147613466Y-66055565D01*
G37*
G36*
X145738466Y-66055565D02*
X145777137Y-66067296D01*
X145812779Y-66086348D01*
X145844017Y-66111983D01*
X145869652Y-66143221D01*
X145888704Y-66178863D01*
X145900435Y-66217534D01*
X145905000Y-66263888D01*
X145905000Y-67340112D01*
X145900435Y-67386466D01*
X145888704Y-67425137D01*
X145869652Y-67460779D01*
X145844017Y-67492017D01*
X145812779Y-67517652D01*
X145777137Y-67536704D01*
X145738466Y-67548435D01*
X145692112Y-67553000D01*
X145040888Y-67553000D01*
X144994534Y-67548435D01*
X144955863Y-67536704D01*
X144920221Y-67517652D01*
X144888983Y-67492017D01*
X144863348Y-67460779D01*
X144844296Y-67425137D01*
X144832565Y-67386466D01*
X144828000Y-67340112D01*
X144828000Y-66263888D01*
X144832565Y-66217534D01*
X144844296Y-66178863D01*
X144863348Y-66143221D01*
X144888983Y-66111983D01*
X144920221Y-66086348D01*
X144955863Y-66067296D01*
X144994534Y-66055565D01*
X145040888Y-66051000D01*
X145692112Y-66051000D01*
X145738466Y-66055565D01*
X145738466Y-66055565D01*
G37*
G36*
X163076842Y-65374118D02*
X163143027Y-65380637D01*
X163256253Y-65414984D01*
X163312867Y-65432157D01*
X163451487Y-65506252D01*
X163469391Y-65515822D01*
X163505129Y-65545152D01*
X163606586Y-65628414D01*
X163689848Y-65729871D01*
X163719178Y-65765609D01*
X163719179Y-65765611D01*
X163802843Y-65922133D01*
X163802843Y-65922134D01*
X163854363Y-66091973D01*
X163871759Y-66268600D01*
X163854363Y-66445227D01*
X163824707Y-66542989D01*
X163802843Y-66615067D01*
X163728748Y-66753687D01*
X163719178Y-66771591D01*
X163701790Y-66792778D01*
X163606586Y-66908786D01*
X163505129Y-66992048D01*
X163469391Y-67021378D01*
X163469389Y-67021379D01*
X163312867Y-67105043D01*
X163256253Y-67122216D01*
X163143027Y-67156563D01*
X163076843Y-67163081D01*
X163010660Y-67169600D01*
X162922140Y-67169600D01*
X162855957Y-67163081D01*
X162789773Y-67156563D01*
X162676547Y-67122216D01*
X162619933Y-67105043D01*
X162463411Y-67021379D01*
X162463409Y-67021378D01*
X162427671Y-66992048D01*
X162326214Y-66908786D01*
X162231010Y-66792778D01*
X162213622Y-66771591D01*
X162204052Y-66753687D01*
X162129957Y-66615067D01*
X162108093Y-66542989D01*
X162078437Y-66445227D01*
X162061041Y-66268600D01*
X162078437Y-66091973D01*
X162129957Y-65922134D01*
X162129957Y-65922133D01*
X162213621Y-65765611D01*
X162213622Y-65765609D01*
X162242952Y-65729871D01*
X162326214Y-65628414D01*
X162427671Y-65545152D01*
X162463409Y-65515822D01*
X162481313Y-65506252D01*
X162619933Y-65432157D01*
X162676547Y-65414984D01*
X162789773Y-65380637D01*
X162855958Y-65374118D01*
X162922140Y-65367600D01*
X163010660Y-65367600D01*
X163076842Y-65374118D01*
X163076842Y-65374118D01*
G37*
G36*
X119998442Y-65145518D02*
X120064627Y-65152037D01*
X120177853Y-65186384D01*
X120234467Y-65203557D01*
X120373087Y-65277652D01*
X120390991Y-65287222D01*
X120426729Y-65316552D01*
X120528186Y-65399814D01*
X120611448Y-65501271D01*
X120640778Y-65537009D01*
X120640779Y-65537011D01*
X120724443Y-65693533D01*
X120724443Y-65693534D01*
X120775963Y-65863373D01*
X120793359Y-66040000D01*
X120775963Y-66216627D01*
X120760197Y-66268600D01*
X120724443Y-66386467D01*
X120650348Y-66525087D01*
X120640778Y-66542991D01*
X120611448Y-66578729D01*
X120528186Y-66680186D01*
X120426729Y-66763448D01*
X120390991Y-66792778D01*
X120390989Y-66792779D01*
X120234467Y-66876443D01*
X120177853Y-66893616D01*
X120064627Y-66927963D01*
X119998442Y-66934482D01*
X119932260Y-66941000D01*
X119843740Y-66941000D01*
X119777558Y-66934482D01*
X119711373Y-66927963D01*
X119598147Y-66893616D01*
X119541533Y-66876443D01*
X119385011Y-66792779D01*
X119385009Y-66792778D01*
X119349271Y-66763448D01*
X119247814Y-66680186D01*
X119164552Y-66578729D01*
X119135222Y-66542991D01*
X119125652Y-66525087D01*
X119051557Y-66386467D01*
X119015803Y-66268600D01*
X119000037Y-66216627D01*
X118982641Y-66040000D01*
X119000037Y-65863373D01*
X119051557Y-65693534D01*
X119051557Y-65693533D01*
X119135221Y-65537011D01*
X119135222Y-65537009D01*
X119164552Y-65501271D01*
X119247814Y-65399814D01*
X119349271Y-65316552D01*
X119385009Y-65287222D01*
X119402913Y-65277652D01*
X119541533Y-65203557D01*
X119598147Y-65186384D01*
X119711373Y-65152037D01*
X119777558Y-65145518D01*
X119843740Y-65139000D01*
X119932260Y-65139000D01*
X119998442Y-65145518D01*
X119998442Y-65145518D01*
G37*
G36*
X163867400Y-64629600D02*
X162065400Y-64629600D01*
X162065400Y-62827600D01*
X163867400Y-62827600D01*
X163867400Y-64629600D01*
X163867400Y-64629600D01*
G37*
G36*
X147052600Y-64426400D02*
X145250600Y-64426400D01*
X145250600Y-62624400D01*
X147052600Y-62624400D01*
X147052600Y-64426400D01*
X147052600Y-64426400D01*
G37*
G36*
X138642042Y-62630918D02*
X138708227Y-62637437D01*
X138794333Y-62663557D01*
X138878067Y-62688957D01*
X139016687Y-62763052D01*
X139034591Y-62772622D01*
X139070329Y-62801952D01*
X139171786Y-62885214D01*
X139255048Y-62986671D01*
X139284378Y-63022409D01*
X139284379Y-63022411D01*
X139368043Y-63178933D01*
X139368043Y-63178934D01*
X139419563Y-63348773D01*
X139436959Y-63525400D01*
X139419563Y-63702027D01*
X139385216Y-63815253D01*
X139368043Y-63871867D01*
X139297956Y-64002989D01*
X139284378Y-64028391D01*
X139255048Y-64064129D01*
X139171786Y-64165586D01*
X139070329Y-64248848D01*
X139034591Y-64278178D01*
X139034589Y-64278179D01*
X138878067Y-64361843D01*
X138821453Y-64379016D01*
X138708227Y-64413363D01*
X138642043Y-64419881D01*
X138575860Y-64426400D01*
X138487340Y-64426400D01*
X138421157Y-64419881D01*
X138354973Y-64413363D01*
X138241747Y-64379016D01*
X138185133Y-64361843D01*
X138028611Y-64278179D01*
X138028609Y-64278178D01*
X137992871Y-64248848D01*
X137891414Y-64165586D01*
X137808152Y-64064129D01*
X137778822Y-64028391D01*
X137765244Y-64002989D01*
X137695157Y-63871867D01*
X137677984Y-63815253D01*
X137643637Y-63702027D01*
X137626241Y-63525400D01*
X137643637Y-63348773D01*
X137695157Y-63178934D01*
X137695157Y-63178933D01*
X137778821Y-63022411D01*
X137778822Y-63022409D01*
X137808152Y-62986671D01*
X137891414Y-62885214D01*
X137992871Y-62801952D01*
X138028609Y-62772622D01*
X138046513Y-62763052D01*
X138185133Y-62688957D01*
X138268867Y-62663557D01*
X138354973Y-62637437D01*
X138421158Y-62630918D01*
X138487340Y-62624400D01*
X138575860Y-62624400D01*
X138642042Y-62630918D01*
X138642042Y-62630918D01*
G37*
G36*
X143722042Y-62630918D02*
X143788227Y-62637437D01*
X143874333Y-62663557D01*
X143958067Y-62688957D01*
X144096687Y-62763052D01*
X144114591Y-62772622D01*
X144150329Y-62801952D01*
X144251786Y-62885214D01*
X144335048Y-62986671D01*
X144364378Y-63022409D01*
X144364379Y-63022411D01*
X144448043Y-63178933D01*
X144448043Y-63178934D01*
X144499563Y-63348773D01*
X144516959Y-63525400D01*
X144499563Y-63702027D01*
X144465216Y-63815253D01*
X144448043Y-63871867D01*
X144377956Y-64002989D01*
X144364378Y-64028391D01*
X144335048Y-64064129D01*
X144251786Y-64165586D01*
X144150329Y-64248848D01*
X144114591Y-64278178D01*
X144114589Y-64278179D01*
X143958067Y-64361843D01*
X143901453Y-64379016D01*
X143788227Y-64413363D01*
X143722043Y-64419881D01*
X143655860Y-64426400D01*
X143567340Y-64426400D01*
X143501157Y-64419881D01*
X143434973Y-64413363D01*
X143321747Y-64379016D01*
X143265133Y-64361843D01*
X143108611Y-64278179D01*
X143108609Y-64278178D01*
X143072871Y-64248848D01*
X142971414Y-64165586D01*
X142888152Y-64064129D01*
X142858822Y-64028391D01*
X142845244Y-64002989D01*
X142775157Y-63871867D01*
X142757984Y-63815253D01*
X142723637Y-63702027D01*
X142706241Y-63525400D01*
X142723637Y-63348773D01*
X142775157Y-63178934D01*
X142775157Y-63178933D01*
X142858821Y-63022411D01*
X142858822Y-63022409D01*
X142888152Y-62986671D01*
X142971414Y-62885214D01*
X143072871Y-62801952D01*
X143108609Y-62772622D01*
X143126513Y-62763052D01*
X143265133Y-62688957D01*
X143348867Y-62663557D01*
X143434973Y-62637437D01*
X143501158Y-62630918D01*
X143567340Y-62624400D01*
X143655860Y-62624400D01*
X143722042Y-62630918D01*
X143722042Y-62630918D01*
G37*
G36*
X141182042Y-62630918D02*
X141248227Y-62637437D01*
X141334333Y-62663557D01*
X141418067Y-62688957D01*
X141556687Y-62763052D01*
X141574591Y-62772622D01*
X141610329Y-62801952D01*
X141711786Y-62885214D01*
X141795048Y-62986671D01*
X141824378Y-63022409D01*
X141824379Y-63022411D01*
X141908043Y-63178933D01*
X141908043Y-63178934D01*
X141959563Y-63348773D01*
X141976959Y-63525400D01*
X141959563Y-63702027D01*
X141925216Y-63815253D01*
X141908043Y-63871867D01*
X141837956Y-64002989D01*
X141824378Y-64028391D01*
X141795048Y-64064129D01*
X141711786Y-64165586D01*
X141610329Y-64248848D01*
X141574591Y-64278178D01*
X141574589Y-64278179D01*
X141418067Y-64361843D01*
X141361453Y-64379016D01*
X141248227Y-64413363D01*
X141182043Y-64419881D01*
X141115860Y-64426400D01*
X141027340Y-64426400D01*
X140961157Y-64419881D01*
X140894973Y-64413363D01*
X140781747Y-64379016D01*
X140725133Y-64361843D01*
X140568611Y-64278179D01*
X140568609Y-64278178D01*
X140532871Y-64248848D01*
X140431414Y-64165586D01*
X140348152Y-64064129D01*
X140318822Y-64028391D01*
X140305244Y-64002989D01*
X140235157Y-63871867D01*
X140217984Y-63815253D01*
X140183637Y-63702027D01*
X140166241Y-63525400D01*
X140183637Y-63348773D01*
X140235157Y-63178934D01*
X140235157Y-63178933D01*
X140318821Y-63022411D01*
X140318822Y-63022409D01*
X140348152Y-62986671D01*
X140431414Y-62885214D01*
X140532871Y-62801952D01*
X140568609Y-62772622D01*
X140586513Y-62763052D01*
X140725133Y-62688957D01*
X140808867Y-62663557D01*
X140894973Y-62637437D01*
X140961158Y-62630918D01*
X141027340Y-62624400D01*
X141115860Y-62624400D01*
X141182042Y-62630918D01*
X141182042Y-62630918D01*
G37*
G36*
X119998442Y-62605518D02*
X120064627Y-62612037D01*
X120177853Y-62646384D01*
X120234467Y-62663557D01*
X120281986Y-62688957D01*
X120390991Y-62747222D01*
X120421941Y-62772622D01*
X120528186Y-62859814D01*
X120611448Y-62961271D01*
X120640778Y-62997009D01*
X120640779Y-62997011D01*
X120724443Y-63153533D01*
X120724443Y-63153534D01*
X120775963Y-63323373D01*
X120793359Y-63500000D01*
X120775963Y-63676627D01*
X120768258Y-63702027D01*
X120724443Y-63846467D01*
X120710866Y-63871867D01*
X120640778Y-64002991D01*
X120611448Y-64038729D01*
X120528186Y-64140186D01*
X120426729Y-64223448D01*
X120390991Y-64252778D01*
X120390989Y-64252779D01*
X120234467Y-64336443D01*
X120177853Y-64353616D01*
X120064627Y-64387963D01*
X119998442Y-64394482D01*
X119932260Y-64401000D01*
X119843740Y-64401000D01*
X119777558Y-64394482D01*
X119711373Y-64387963D01*
X119598147Y-64353616D01*
X119541533Y-64336443D01*
X119385011Y-64252779D01*
X119385009Y-64252778D01*
X119349271Y-64223448D01*
X119247814Y-64140186D01*
X119164552Y-64038729D01*
X119135222Y-64002991D01*
X119065134Y-63871867D01*
X119051557Y-63846467D01*
X119007742Y-63702027D01*
X119000037Y-63676627D01*
X118982641Y-63500000D01*
X119000037Y-63323373D01*
X119051557Y-63153534D01*
X119051557Y-63153533D01*
X119135221Y-62997011D01*
X119135222Y-62997009D01*
X119164552Y-62961271D01*
X119247814Y-62859814D01*
X119354059Y-62772622D01*
X119385009Y-62747222D01*
X119494014Y-62688957D01*
X119541533Y-62663557D01*
X119598147Y-62646384D01*
X119711373Y-62612037D01*
X119777558Y-62605518D01*
X119843740Y-62599000D01*
X119932260Y-62599000D01*
X119998442Y-62605518D01*
X119998442Y-62605518D01*
G37*
M02*
