M48
;DRILL file {KiCad 5.0.2-bee76a0~70~ubuntu16.04.1} date Fr 05 Feb 2021 17:40:39 MSK
;FORMAT={-:-/ absolute / metric / decimal}
FMAT,2
METRIC,TZ
T1C1.000
%
G90
G05
T1
X132.41Y-95.783
X134.95Y-95.783
X137.49Y-95.783
X140.03Y-95.783
X119.888Y-81.788
X119.888Y-84.328
X162.966Y-63.729
X162.966Y-66.269
X162.966Y-68.809
X162.966Y-71.349
X162.966Y-73.889
X162.966Y-76.429
X162.941Y-82.194
X162.941Y-84.734
X162.941Y-87.274
X162.941Y-89.814
X138.532Y-63.525
X141.072Y-63.525
X143.612Y-63.525
X146.152Y-63.525
X119.888Y-76.581
X119.888Y-63.5
X119.888Y-66.04
X119.888Y-68.58
X119.888Y-71.12
X144.856Y-93.345
X144.856Y-95.885
X147.396Y-93.345
X147.396Y-95.885
X149.936Y-93.345
X149.936Y-95.885
X152.476Y-93.345
X152.476Y-95.885
T0
M30
